<svg xmlns="http://www.w3.org/2000/svg" version="1.1" xmlns:xlink="http://www.w3.org/1999/xlink" width="512" height="512" x="0" y="0" viewBox="0 0 512 512" style="enable-background:new 0 0 512 512" xml:space="preserve" class=""><g><path fill-rule="evenodd" d="M46.8 397.006V219.351a34 34 0 0 1-26.892-33.161 7 7 0 0 1 7-7h53.785a7 7 0 0 1 7 7A34 34 0 0 1 60.8 219.351v177.655h29.3a5.01 5.01 0 0 1 5 5v48.12a41.3 41.3 0 0 1-82.6 0v-48.12a5.01 5.01 0 0 1 5-5zm24.62-235.918A216.89 216.89 0 0 1 268.648 34.574c119.766 0 216.852 97.086 216.852 216.852a216.59 216.59 0 0 1-92.695 177.811 222.43 222.43 0 0 0-24.634-2.087v-56.691c12.906-2.592 31.875-7.1 43.713-17.275 12.925-11.11 20.617-30.416 21.7-48.445a4.981 4.981 0 0 0-5.319-5.288c-18.06 1.188-37.537 9.425-48.43 21.679-5.444 6.124-9.021 13.712-11.66 21.763v-40.067c12.906-2.591 31.875-7.1 43.713-17.275 12.925-11.11 20.617-30.416 21.7-48.444a4.98 4.98 0 0 0-5.319-5.288c-18.061 1.187-37.537 9.424-48.43 21.679-5.444 6.123-9.021 13.711-11.66 21.762v-40.067c12.906-2.591 31.875-7.1 43.713-17.274 12.925-11.11 20.617-30.416 21.7-48.445a4.981 4.981 0 0 0-5.319-5.288c-18.06 1.188-37.537 9.425-48.43 21.679-5.444 6.124-9.021 13.712-11.66 21.763v-30.339c5.407-8.724 11.168-19.844 11.965-30.395 1.052-13.923-5.5-29.523-15.181-40.791a5 5 0 0 0-7.608.026c-9.626 11.363-15.975 27.357-15.187 40.765.631 10.725 6.1 20.868 12.011 30.261v30.384c-2.637-8.018-6.207-15.573-11.631-21.674-10.893-12.254-30.37-20.491-48.43-21.679a4.981 4.981 0 0 0-5.319 5.288c1.079 18.029 8.77 37.335 21.7 48.445 11.829 10.167 30.779 14.676 43.684 17.269v39.984c-2.637-8.018-6.207-15.573-11.631-21.674-10.893-12.255-30.37-20.492-48.43-21.679a4.98 4.98 0 0 0-5.319 5.288c1.079 18.028 8.77 37.334 21.7 48.444 11.829 10.167 30.779 14.677 43.684 17.269v39.98c-2.637-8.018-6.207-15.573-11.631-21.674-10.893-12.254-30.37-20.491-48.43-21.679a4.981 4.981 0 0 0-5.319 5.288c1.079 18.029 8.77 37.335 21.7 48.445 11.829 10.167 30.779 14.676 43.684 17.269v56.7c-27.038.807-51.506 6.26-70.114 14.744 8.234 6.39 15.217 14.217 19.208 23.632q-7.274 1.167-14.7 1.848c-12.735-22.21-53.141-38.765-101.9-40.221v-56.693c12.906-2.592 31.876-7.1 43.713-17.275 12.926-11.11 20.617-30.416 21.7-48.445a4.981 4.981 0 0 0-5.319-5.288c-18.06 1.188-37.537 9.425-48.43 21.679-5.444 6.124-9.02 13.712-11.66 21.763v-40.067c12.906-2.591 31.876-7.1 43.713-17.275 12.926-11.11 20.617-30.416 21.7-48.444a4.98 4.98 0 0 0-5.319-5.288c-18.06 1.187-37.537 9.424-48.43 21.679-5.444 6.123-9.02 13.711-11.66 21.762v-40.067c12.906-2.591 31.876-7.1 43.713-17.274 12.926-11.11 20.617-30.416 21.7-48.445a4.981 4.981 0 0 0-5.319-5.288c-18.06 1.188-37.537 9.425-48.43 21.679-5.444 6.124-9.02 13.712-11.66 21.763v-30.339c5.407-8.724 11.169-19.844 11.966-30.395 1.051-13.923-5.5-29.523-15.182-40.791a5 5 0 0 0-7.608.026c-9.626 11.363-15.975 27.357-15.186 40.765.63 10.725 6.1 20.868 12.01 30.261v30.384c-2.636-8.018-6.207-15.573-11.63-21.674-10.894-12.254-30.371-20.491-48.431-21.679a4.981 4.981 0 0 0-5.319 5.288c1.079 18.029 8.771 37.335 21.7 48.445 11.829 10.167 30.779 14.676 43.684 17.269v39.984c-2.636-8.018-6.207-15.573-11.63-21.674-10.894-12.255-30.37-20.492-48.431-21.679a4.98 4.98 0 0 0-5.319 5.288c1.079 18.028 8.771 37.334 21.7 48.444 11.829 10.167 30.779 14.677 43.684 17.269v39.98c-2.636-8.018-6.207-15.573-11.63-21.674-10.894-12.254-30.371-20.491-48.431-21.679a4.981 4.981 0 0 0-5.319 5.288c1.079 18.029 8.771 37.335 21.7 48.445 11.829 10.167 30.779 14.676 43.684 17.269v56.7a220.8 220.8 0 0 0-27.576 2.527A217.642 217.642 0 0 1 127.64 416.2a6.981 6.981 0 1 0-9.078 10.609 230.018 230.018 0 0 0 150.086 55.466c127.494 0 230.852-103.358 230.852-230.852S396.142 20.574 268.648 20.574A230.882 230.882 0 0 0 58.733 155.292a6.974 6.974 0 1 0 12.687 5.8zm.99 32.1H35.191a19.877 19.877 0 0 0 37.219 0z" fill="#000000" opacity="1" data-original="#000000" class=""></path></g></svg>