<svg xmlns="http://www.w3.org/2000/svg" version="1.1" xmlns:xlink="http://www.w3.org/1999/xlink" width="512" height="512" x="0" y="0" viewBox="0 0 512 512" style="enable-background:new 0 0 512 512" xml:space="preserve" class=""><g><path d="M217.26 75.888h-36.471a6 6 0 0 0-6 6v36.471a6 6 0 0 0 6 6h36.471a6 6 0 0 0 6-6V81.888a6 6 0 0 0-6-6zm-6 36.471h-24.471V87.888h24.471zm-78.28-36.471H96.509a6 6 0 0 0-6 6v36.471a6 6 0 0 0 6 6h36.471a6 6 0 0 0 6-6V81.888a6 6 0 0 0-6-6zm-6 36.471h-24.471V87.888h24.471zm90.28 38.163h-36.471a6 6 0 0 0-6 6v36.472a6 6 0 0 0 6 6h36.471a6 6 0 0 0 6-6v-36.472a6 6 0 0 0-6-6zm-6 36.472h-24.471v-24.472h24.471zm-78.28-36.472H96.509a6 6 0 0 0-6 6v36.472a6 6 0 0 0 6 6h36.471a6 6 0 0 0 6-6v-36.472a6 6 0 0 0-6-6zm-6 36.472h-24.471v-24.472h24.471zm90.28 38.163h-36.471a6 6 0 0 0-6 6v36.471a6 6 0 0 0 6 6h36.471a6 6 0 0 0 6-6v-36.471a6 6 0 0 0-6-6zm-6 36.471h-24.471v-24.471h24.471zm-78.28-36.471H96.509a6 6 0 0 0-6 6v36.471a6 6 0 0 0 6 6h36.471a6 6 0 0 0 6-6v-36.471a6 6 0 0 0-6-6zm-6 36.471h-24.471v-24.471h24.471zm90.28 38.164h-36.471a6 6 0 0 0-6 6v36.471a6 6 0 0 0 6 6h36.471a6 6 0 0 0 6-6v-36.471a6 6 0 0 0-6-6zm-6 36.471h-24.471v-24.471h24.471zm-78.28-36.471H96.509a6 6 0 0 0-6 6v36.471a6 6 0 0 0 6 6h36.471a6 6 0 0 0 6-6v-36.471a6 6 0 0 0-6-6zm-6 36.471h-24.471v-24.471h24.471zm90.28 38.164h-36.471a6 6 0 0 0-6 6V416.9a6 6 0 0 0 6 6h36.471a6 6 0 0 0 6-6v-36.47a6 6 0 0 0-6-6.003zm-6 36.47h-24.471v-24.47h24.471zm-78.28-36.47H96.509a6 6 0 0 0-6 6V416.9a6 6 0 0 0 6 6h36.471a6 6 0 0 0 6-6v-36.47a6 6 0 0 0-6-6.003zm-6 36.47h-24.471v-24.47h24.471zm252.04-211.9h36.471a6 6 0 0 0 6-6v-36.475a6 6 0 0 0-6-6H379.02a6 6 0 0 0-6 6v36.472a6 6 0 0 0 6 6zm6-36.472h24.471v24.472H385.02zm-90.28 36.472h36.471a6 6 0 0 0 6-6v-36.475a6 6 0 0 0-6-6H294.74a6 6 0 0 0-6 6v36.472a6 6 0 0 0 6 6zm6-36.472h24.471v24.472H300.74zm78.28 111.106h36.471a6 6 0 0 0 6-6v-36.474a6 6 0 0 0-6-6H379.02a6 6 0 0 0-6 6v36.471a6 6 0 0 0 6 6zm6-36.471h24.471v24.471H385.02zm-90.28 36.471h36.471a6 6 0 0 0 6-6v-36.474a6 6 0 0 0-6-6H294.74a6 6 0 0 0-6 6v36.471a6 6 0 0 0 6 6zm6-36.471h24.471v24.471H300.74zm78.28 111.106h36.471a6 6 0 0 0 6-6v-36.474a6 6 0 0 0-6-6H379.02a6 6 0 0 0-6 6v36.471a6 6 0 0 0 6 6zm6-36.471h24.471v24.471H385.02zm-90.28 36.471h36.471a6 6 0 0 0 6-6v-36.474a6 6 0 0 0-6-6H294.74a6 6 0 0 0-6 6v36.471a6 6 0 0 0 6 6zm6-36.471h24.471v24.471H300.74zM379.02 422.9h36.471a6 6 0 0 0 6-6v-36.47a6 6 0 0 0-6-6H379.02a6 6 0 0 0-6 6v36.47a6 6 0 0 0 6 6zm6-36.47h24.471v24.47H385.02zm-90.28 36.47h36.471a6 6 0 0 0 6-6v-36.47a6 6 0 0 0-6-6H294.74a6 6 0 0 0-6 6v36.47a6 6 0 0 0 6 6zm6-36.47h24.471v24.47H300.74zm188.1 89.726h-28.609V114.333a6 6 0 0 0-5.055-5.926l-33.685-5.375V47.138a6 6 0 0 0-6-6H294.74a6 6 0 0 0-6 6v34.713L262 77.584V26.3a6 6 0 0 0-6-6h-32.74V7.016a6 6 0 0 0-6-6H96.509a6 6 0 0 0-6 6V20.3h-32.74a6 6 0 0 0-6 6v449.853H23.161a6 6 0 0 0-6 6v22.831a6 6 0 0 0 6 6h465.678a6 6 0 0 0 6-6v-22.831a6 6 0 0 0-6-6zM300.74 53.138h108.751v47.98L300.74 83.766zm147.491 66.313v356.7H262V89.736zM102.509 13.016H211.26V20.3H102.509zM63.769 32.3H250v443.853H63.769zm419.07 466.68H29.161v-10.827h453.678z" fill="#000000" opacity="1" data-original="#000000"></path></g></svg>