<svg xmlns="http://www.w3.org/2000/svg" version="1.1" xmlns:xlink="http://www.w3.org/1999/xlink" width="512" height="512" x="0" y="0" viewBox="0 0 64 64" style="enable-background:new 0 0 512 512" xml:space="preserve" class=""><g><path d="M59 33h-3.981a19.028 19.028 0 0 0-1.031-2.5l2.811-2.81a1 1 0 0 0 0-1.415l-5.433-5.435a9.1 9.1 0 0 0 1.634.152 8.992 8.992 0 0 0 8.287-12.506 1 1 0 0 0-1.628-.317l-3.487 3.488a1 1 0 1 0 1.414 1.414l2.308-2.307a7 7 0 1 1-5.658-5.658l-4.768 4.769a1 1 0 0 0 0 1.414l4.243 4.243a1 1 0 0 0 1.414-1.414l-3.536-3.536 5.242-5.241a1 1 0 0 0-.317-1.628 8.988 8.988 0 0 0-12.031 11.148L42.846 16.5A.987.987 0 0 0 42 16h-4.222l-.341-.689 1.554-.417a1 1 0 0 0 .707-1.225l-.473-1.769 1.766-.473a1 1 0 0 0 .739-.907L42 6.06a1 1 0 0 0-.5-.926l-5.2-3a1 1 0 0 0-1.367.366l-7.7 13.336-3.728-3.736.708-.707a1 1 0 0 0 0-1.415l-.977-.976A5.99 5.99 0 0 1 27.3 5.291a1 1 0 0 0 .187-1.86L26.3 2.838a7.911 7.911 0 0 0-8.4.836l-.763-.763a1 1 0 0 0-1.414 0l-2.5 2.494a1 1 0 0 0 1.414 1.414l1.789-1.787 5.656 5.656-6.364 6.365-5.647-5.653 1.748-1.749a1 1 0 0 0-1.414-1.414L7.95 10.689a1 1 0 0 0 0 1.415l.707.706-1.415 1.415-.707-.707a1 1 0 0 0-1.414 0l-2.828 2.828a1 1 0 0 0 0 1.414l7.071 7.071a1 1 0 0 0 1.414 0L13.606 22a1 1 0 0 0 0-1.414l-.707-.708 1.414-1.414.708.707a1 1 0 0 0 1.414 0l1.414-1.415 3.933 3.933-4.582 4.583a1 1 0 0 0 0 1.415l2.811 2.81a18.881 18.881 0 0 0-.958 2.308L7.5 26.134a1 1 0 0 0-1.366.366l-4 6.928a1 1 0 0 0 .366 1.366l9.945 5.742-5.151 2.974a3 3 0 0 0-1.1 4.1l4 6.929a3 3 0 0 0 .657.775L5.5 58.4a1 1 0 0 0-.366 1.367l1 1.732a1 1 0 1 0 1.732-1l-.5-.866L15 55.225l3.612-2.085 5.66 5.66a1 1 0 0 0 1.415 0l2.81-2.811A19.028 19.028 0 0 0 31 57.019V61a1 1 0 0 0 1 1h10a1 1 0 0 0 1-1v-3.981a19.028 19.028 0 0 0 2.5-1.031l2.81 2.811a1 1 0 0 0 1.415 0l7.075-7.071a1 1 0 0 0 0-1.415L53.988 47.5a19.028 19.028 0 0 0 1.031-2.5H59a1 1 0 0 0 0-2h-4.719a1 1 0 0 0-.961.723 16.93 16.93 0 0 1-1.434 3.483 1 1 0 0 0 .168 1.19l2.624 2.625-5.657 5.657-2.621-2.624a1 1 0 0 0-1.19-.168 16.93 16.93 0 0 1-3.483 1.434 1 1 0 0 0-.723.961V60H33v-3.719a1 1 0 0 0-.723-.961 16.93 16.93 0 0 1-3.483-1.434 1 1 0 0 0-1.19.168l-2.625 2.624-5.657-5.657 2.624-2.621a1 1 0 0 0 .168-1.19 16.93 16.93 0 0 1-1.434-3.483 1 1 0 0 0-.961-.727H16v-8h3.719a1 1 0 0 0 .961-.723 16.93 16.93 0 0 1 1.434-3.483 1 1 0 0 0-.168-1.19l-2.624-2.625 5.657-5.657 2.621 2.624a1 1 0 0 0 1.19.168 16.93 16.93 0 0 1 3.483-1.434 1 1 0 0 0 .727-.961V18h8v3.719a1 1 0 0 0 .723.961 16.93 16.93 0 0 1 3.483 1.434 1 1 0 0 0 1.19-.168l2.625-2.624 5.657 5.657-2.624 2.621a1 1 0 0 0-.168 1.19 16.93 16.93 0 0 1 1.434 3.483 1 1 0 0 0 .961.723H58v5a1 1 0 0 0 2 0V34a1 1 0 0 0-1-1ZM10.071 22.71l-5.657-5.657 1.414-1.414 5.657 5.661Zm1.414-4.243-2.829-2.828 1.415-1.415 2.829 2.829Zm-4.119 9.9 1.732 1-1.5 2.6a1 1 0 1 0 1.732 1l1.5-2.6 1.732 1-1.5 2.6a1 1 0 1 0 1.732 1l1.5-2.6 1.1.634H15a1 1 0 0 0-1 1v5.124l-9.634-5.563Zm7.151 18.239a1 1 0 0 1 .242 1.833 1.017 1.017 0 0 1-.76.1 1 1 0 0 1 .258-1.967 1.049 1.049 0 0 1 .26.033ZM18.981 45a19.028 19.028 0 0 0 1.031 2.5L17.2 50.313a.994.994 0 0 0-.039 1.356L13.293 53.9a1 1 0 0 1-.758.1.987.987 0 0 1-.606-.466l-4-6.93a1 1 0 0 1 .365-1.364L14 41.948V44a.976.976 0 0 0 .21.584 2.994 2.994 0 0 0-.729 5.886 3.038 3.038 0 0 0 .782.1A2.989 2.989 0 0 0 15.779 45Zm5.632-40.7a8.015 8.015 0 0 0-2.9 3.188L19.33 5.1a5.933 5.933 0 0 1 5.283-.8ZM28.5 22.012 25.687 19.2a1 1 0 0 0-1.415 0L23.2 20.278l-3.933-3.933 2.828-2.828 7.856 7.855a17.74 17.74 0 0 0-1.451.64ZM32 16a1 1 0 0 0-1 1v2.6l-2.3-2.3 7.47-12.934 3.8 2.191-.188 3.128-2.036.545a1 1 0 0 0-.707 1.225l.474 1.766-1.767.473A1 1 0 0 0 35.1 15.1l.443.9Zm13.5 6.012a19.028 19.028 0 0 0-2.5-1.031v-1.809l2.389-2.39a8.875 8.875 0 0 0 2.634 2.71Z" fill="#000000" opacity="1" data-original="#000000" class=""></path><path d="M37 31a7.983 7.983 0 0 1 4.252 1.232 1 1 0 1 0 1.066-1.691 10.022 10.022 0 1 0 3.141 3.141 1 1 0 1 0-1.691 1.066A7.995 7.995 0 1 1 37 31Z" fill="#000000" opacity="1" data-original="#000000" class=""></path></g></svg>