<svg xmlns="http://www.w3.org/2000/svg" version="1.1" xmlns:xlink="http://www.w3.org/1999/xlink" width="512" height="512" x="0" y="0" viewBox="0 0 682.667 682.667" style="enable-background:new 0 0 512 512" xml:space="preserve" class=""><g><defs><clipPath id="a" clipPathUnits="userSpaceOnUse"><path d="M0 512h512V0H0Z" fill="#000000" opacity="1" data-original="#000000"></path></clipPath></defs><path d="M12.099 7.5h492.395v70.016H12.099Z" style="fill-opacity:1;fill-rule:evenodd;stroke:none" transform="matrix(1.33333 0 0 -1.33333 0 682.667)" fill="#b1e4f9" data-original="#b1e4f9" class=""></path><path d="M472.547 7.5h31.946v70.016h-31.946z" style="fill-opacity:1;fill-rule:evenodd;stroke:none" transform="matrix(1.33333 0 0 -1.33333 0 682.667)" fill="#75cef8" data-original="#75cef8"></path><g clip-path="url(#a)" transform="matrix(1.33333 0 0 -1.33333 0 682.667)"><path d="m0 0-40.052-269.377c-20.863 0-37.927-17.065-37.927-37.928 0-20.835 17.064-37.899 37.927-37.899H73.5l325.212-.028c15.704 0 18.595 9.269 18.595 18.623v309.998c0 6.775-2.07 16.611-17.348 16.611Z" style="fill-opacity:1;fill-rule:evenodd;stroke:none" transform="translate(85.486 470.768)" fill="#f9f3f1" data-original="#f9f3f1" class=""></path><path d="M0 0v-309.998c0-9.326-2.863-18.567-18.481-18.624h33.476c15.704 0 18.595 9.269 18.595 18.624V0c0 6.774-2.069 16.611-17.348 16.611h-33.59C-2.069 16.611 0 6.774 0 0" style="fill-opacity:1;fill-rule:evenodd;stroke:none" transform="translate(469.203 454.157)" fill="#dddaec" data-original="#dddaec" class=""></path><path d="M0 0h-27.126c-20.863 0-37.927-27.071-37.927-47.934 0-5.896 1.36-11.48 3.798-16.498 6.151 12.671 19.162 21.431 34.129 21.431H0c7.115 0 12.926 5.811 12.926 12.925v43.002C12.926 20.013 7.115 0 0 0" style="fill-opacity:1;fill-rule:evenodd;stroke:none" transform="translate(72.56 211.397)" fill="#dddaec" data-original="#dddaec" class=""></path><path d="M0 0v108.823l-78.149 19.984-75.967-19.984V0h54.395l22.677 72.993L-54.396 0Z" style="fill-opacity:1;fill-rule:evenodd;stroke:none" transform="translate(335.751 229.283)" fill="#fec165" data-original="#fec165"></path><path d="m0 0 22.025 44.362c.737 1.474 1.162 2.268 1.162 3.941L0 57.43l-23.215-9.127c0-1.673.425-2.467 1.162-3.941z" style="fill-opacity:1;fill-rule:evenodd;stroke:none" transform="translate(423.623 177.891)" fill="#ffe5c1" data-original="#ffe5c1"></path><path d="m0 0 26.05-11.565L46.402 0v23.414c0 12.784-10.431 23.216-23.187 23.216C10.431 46.63 0 36.198 0 23.414Z" style="fill-opacity:1;fill-rule:evenodd;stroke:none" transform="translate(400.408 457.87)" fill="#eb5468" data-original="#eb5468"></path><path d="m0 0 8.419-7.427L16.809 0v23.414c0 12.784-10.431 23.216-23.187 23.216-2.976 0-5.81-.539-8.418-1.588C-6.151 41.669 0 33.222 0 23.414Z" style="fill-opacity:1;fill-rule:evenodd;stroke:none" transform="translate(430 457.87)" fill="#e5384f" data-original="#e5384f"></path><path d="m0 0-11.338 9.127L-16.809 0c0-1.673-.454-2.466-1.162-3.94l-13.634-27.44 8.418-16.923L-1.162-3.94C-.425-2.466 0-1.673 0 0" style="fill-opacity:1;fill-rule:evenodd;stroke:none" transform="translate(446.81 226.194)" fill="#fed1a3" data-original="#fed1a3"></path><path d="M400.408 226.194h46.402V457.87h-46.402z" style="fill-opacity:1;fill-rule:evenodd;stroke:none" fill="#fec165" data-original="#fec165"></path><path d="M430 226.194h16.809V457.87H430Z" style="fill-opacity:1;fill-rule:evenodd;stroke:none" fill="#fdb441" data-original="#fdb441"></path><path d="M0 0h78.121v-93.827h15.193V14.996L15.165 37.984l-75.967-22.988V0Z" style="fill-opacity:1;fill-rule:evenodd;stroke:none" transform="translate(242.436 323.11)" fill="#fdb441" data-original="#fdb441"></path><path d="M0 0c0 12.472-10.205 22.677-22.648 22.677-12.473 0-22.677-10.205-22.677-22.677v-50.315H0Z" style="fill-opacity:1;fill-rule:evenodd;stroke:none" transform="translate(281.356 279.599)" fill="#375e7d" data-original="#375e7d"></path><path d="M0 0c12.444 0 22.648-10.205 22.648-22.677v20.381c0 12.472-10.204 22.677-22.648 22.677-12.472 0-22.677-10.205-22.677-22.677v-20.381C-22.677-10.205-12.472 0 0 0" style="fill-opacity:1;fill-rule:evenodd;stroke:none" transform="translate(258.707 281.894)" fill="#2b4d66" data-original="#2b4d66"></path><path d="M0 0h101.875L50.938 50.967 0 101.906l-50.938-50.939L-101.875 0h25.908z" style="fill-opacity:1;fill-rule:evenodd;stroke:none" transform="translate(257.602 338.106)" fill="#eb5468" data-original="#eb5468"></path><path d="m0 0 50.938-50.967H80.077L29.14 0l-50.938 50.939-14.57-14.57Z" style="fill-opacity:1;fill-rule:evenodd;stroke:none" transform="translate(279.4 389.073)" fill="#e5384f" data-original="#e5384f"></path><path d="M0 0V276.549c0 7.115-5.811 12.926-12.926 12.926h-27.126c-20.863 0-37.927-17.065-37.927-37.928V-50.854c0 20.863 17.064 37.928 37.927 37.928h27.126C-5.811-12.926 0-7.115 0 0" style="fill-opacity:1;fill-rule:evenodd;stroke:none" transform="translate(85.486 214.316)" fill="#75cef8" data-original="#75cef8"></path><path d="M0 0v-256.451c0-7.115-5.811-12.926-12.897-12.926h27.126c7.116 0 12.926 5.811 12.926 12.926V20.098c0 7.115-5.81 12.926-12.926 12.926h-27.126C-5.811 33.024 0 27.213 0 20.098Z" style="fill-opacity:1;fill-rule:evenodd;stroke:none" transform="translate(58.33 470.768)" fill="#60b7ff" data-original="#60b7ff"></path><path d="M12.099 7.5h492.395v70.016H12.099Z" style="stroke-width:15;stroke-linecap:round;stroke-linejoin:round;stroke-miterlimit:10;stroke-dasharray:none;stroke-opacity:1" fill="none" stroke="#000000" stroke-width="15" stroke-linecap="round" stroke-linejoin="round" stroke-miterlimit="10" stroke-dasharray="none" stroke-opacity="" data-original="#000000" class=""></path><path d="M0 0v-32.088" style="stroke-width:15;stroke-linecap:round;stroke-linejoin:round;stroke-miterlimit:10;stroke-dasharray:none;stroke-opacity:1" transform="translate(56.857 77.516)" fill="none" stroke="#000000" stroke-width="15" stroke-linecap="round" stroke-linejoin="round" stroke-miterlimit="10" stroke-dasharray="none" stroke-opacity="" data-original="#000000" class=""></path><path d="M0 0v-17.093" style="stroke-width:15;stroke-linecap:round;stroke-linejoin:round;stroke-miterlimit:10;stroke-dasharray:none;stroke-opacity:1" transform="translate(101.615 77.516)" fill="none" stroke="#000000" stroke-width="15" stroke-linecap="round" stroke-linejoin="round" stroke-miterlimit="10" stroke-dasharray="none" stroke-opacity="" data-original="#000000" class=""></path><path d="M0 0v-32.088" style="stroke-width:15;stroke-linecap:round;stroke-linejoin:round;stroke-miterlimit:10;stroke-dasharray:none;stroke-opacity:1" transform="translate(146.373 77.516)" fill="none" stroke="#000000" stroke-width="15" stroke-linecap="round" stroke-linejoin="round" stroke-miterlimit="10" stroke-dasharray="none" stroke-opacity="" data-original="#000000" class=""></path><path d="M0 0v-17.093" style="stroke-width:15;stroke-linecap:round;stroke-linejoin:round;stroke-miterlimit:10;stroke-dasharray:none;stroke-opacity:1" transform="translate(191.16 77.516)" fill="none" stroke="#000000" stroke-width="15" stroke-linecap="round" stroke-linejoin="round" stroke-miterlimit="10" stroke-dasharray="none" stroke-opacity="" data-original="#000000" class=""></path><path d="M0 0v-32.088" style="stroke-width:15;stroke-linecap:round;stroke-linejoin:round;stroke-miterlimit:10;stroke-dasharray:none;stroke-opacity:1" transform="translate(235.917 77.516)" fill="none" stroke="#000000" stroke-width="15" stroke-linecap="round" stroke-linejoin="round" stroke-miterlimit="10" stroke-dasharray="none" stroke-opacity="" data-original="#000000" class=""></path><path d="M0 0v-17.093" style="stroke-width:15;stroke-linecap:round;stroke-linejoin:round;stroke-miterlimit:10;stroke-dasharray:none;stroke-opacity:1" transform="translate(280.675 77.516)" fill="none" stroke="#000000" stroke-width="15" stroke-linecap="round" stroke-linejoin="round" stroke-miterlimit="10" stroke-dasharray="none" stroke-opacity="" data-original="#000000" class=""></path><path d="M0 0v-32.088" style="stroke-width:15;stroke-linecap:round;stroke-linejoin:round;stroke-miterlimit:10;stroke-dasharray:none;stroke-opacity:1" transform="translate(325.433 77.516)" fill="none" stroke="#000000" stroke-width="15" stroke-linecap="round" stroke-linejoin="round" stroke-miterlimit="10" stroke-dasharray="none" stroke-opacity="" data-original="#000000" class=""></path><path d="M0 0v-17.093" style="stroke-width:15;stroke-linecap:round;stroke-linejoin:round;stroke-miterlimit:10;stroke-dasharray:none;stroke-opacity:1" transform="translate(370.19 77.516)" fill="none" stroke="#000000" stroke-width="15" stroke-linecap="round" stroke-linejoin="round" stroke-miterlimit="10" stroke-dasharray="none" stroke-opacity="" data-original="#000000" class=""></path><path d="M0 0v-32.088" style="stroke-width:15;stroke-linecap:round;stroke-linejoin:round;stroke-miterlimit:10;stroke-dasharray:none;stroke-opacity:1" transform="translate(414.949 77.516)" fill="none" stroke="#000000" stroke-width="15" stroke-linecap="round" stroke-linejoin="round" stroke-miterlimit="10" stroke-dasharray="none" stroke-opacity="" data-original="#000000" class=""></path><path d="M0 0v-17.093" style="stroke-width:15;stroke-linecap:round;stroke-linejoin:round;stroke-miterlimit:10;stroke-dasharray:none;stroke-opacity:1" transform="translate(459.735 77.516)" fill="none" stroke="#000000" stroke-width="15" stroke-linecap="round" stroke-linejoin="round" stroke-miterlimit="10" stroke-dasharray="none" stroke-opacity="" data-original="#000000" class=""></path><path d="M0 0h203.749" style="stroke-width:15;stroke-linecap:round;stroke-linejoin:round;stroke-miterlimit:10;stroke-dasharray:none;stroke-opacity:1" transform="translate(155.727 186.452)" fill="none" stroke="#000000" stroke-width="15" stroke-linecap="round" stroke-linejoin="round" stroke-miterlimit="10" stroke-dasharray="none" stroke-opacity="" data-original="#000000" class=""></path><path d="M0 0v29.82" style="stroke-width:15;stroke-linecap:round;stroke-linejoin:round;stroke-miterlimit:10;stroke-dasharray:none;stroke-opacity:1" transform="translate(155.727 171.542)" fill="none" stroke="#000000" stroke-width="15" stroke-linecap="round" stroke-linejoin="round" stroke-miterlimit="10" stroke-dasharray="none" stroke-opacity="" data-original="#000000" class=""></path><path d="M0 0v29.82" style="stroke-width:15;stroke-linecap:round;stroke-linejoin:round;stroke-miterlimit:10;stroke-dasharray:none;stroke-opacity:1" transform="translate(359.476 171.542)" fill="none" stroke="#000000" stroke-width="15" stroke-linecap="round" stroke-linejoin="round" stroke-miterlimit="10" stroke-dasharray="none" stroke-opacity="" data-original="#000000" class=""></path><path d="m0 0-22.053 44.362c-.737 1.474-1.162 2.268-1.162 3.941v231.676h46.402V48.303c0-1.673-.425-2.467-1.162-3.941z" style="stroke-width:15;stroke-linecap:round;stroke-linejoin:round;stroke-miterlimit:10;stroke-dasharray:none;stroke-opacity:1" transform="translate(423.623 177.891)" fill="none" stroke="#000000" stroke-width="15" stroke-linecap="round" stroke-linejoin="round" stroke-miterlimit="10" stroke-dasharray="none" stroke-opacity="" data-original="#000000" class=""></path><path d="M0 0h-46.402" style="stroke-width:15;stroke-linecap:round;stroke-linejoin:round;stroke-miterlimit:10;stroke-dasharray:none;stroke-opacity:1" transform="translate(446.81 226.194)" fill="none" stroke="#000000" stroke-width="15" stroke-linecap="round" stroke-linejoin="round" stroke-miterlimit="10" stroke-dasharray="none" stroke-opacity="" data-original="#000000" class=""></path><path d="M0 0h-46.402v23.414c0 12.784 10.431 23.216 23.215 23.216C-10.431 46.63 0 36.198 0 23.414Z" style="stroke-width:15;stroke-linecap:round;stroke-linejoin:round;stroke-miterlimit:10;stroke-dasharray:none;stroke-opacity:1" transform="translate(446.81 457.87)" fill="none" stroke="#000000" stroke-width="15" stroke-linecap="round" stroke-linejoin="round" stroke-miterlimit="10" stroke-dasharray="none" stroke-opacity="" data-original="#000000" class=""></path><path d="M0 0h38.635c15.279 0 17.348-9.836 17.348-16.611v-309.998c0-9.354-2.891-18.623-18.595-18.623l-325.211.028h-113.553c-20.863 0-37.927 17.064-37.927 37.899 0 20.863 17.064 37.928 37.927 37.928h27.126c7.116 0 12.926 5.811 12.926 12.926V20.098c0 7.115-5.81 12.926-12.926 12.926h-27.126c-20.863 0-37.927-17.065-37.927-37.928v-302.401M-170.528 0h124.126m-314.922 0h156.015" style="stroke-width:15;stroke-linecap:round;stroke-linejoin:round;stroke-miterlimit:10;stroke-dasharray:none;stroke-opacity:1" transform="translate(446.81 470.768)" fill="none" stroke="#000000" stroke-width="15" stroke-linecap="round" stroke-linejoin="round" stroke-miterlimit="10" stroke-dasharray="none" stroke-opacity="" data-original="#000000" class=""></path><path d="M0 0v-8.646" style="stroke-width:15;stroke-linecap:round;stroke-linejoin:round;stroke-miterlimit:10;stroke-dasharray:none;stroke-opacity:1" transform="translate(423.623 177.891)" fill="none" stroke="#000000" stroke-width="15" stroke-linecap="round" stroke-linejoin="round" stroke-miterlimit="10" stroke-dasharray="none" stroke-opacity="" data-original="#000000" class=""></path><path d="m0 0 50.938-50.939 50.937-50.967h-203.75l50.937 50.967z" style="stroke-width:15;stroke-linecap:round;stroke-linejoin:round;stroke-miterlimit:10;stroke-dasharray:none;stroke-opacity:1" transform="translate(257.602 440.012)" fill="none" stroke="#000000" stroke-width="15" stroke-linecap="round" stroke-linejoin="round" stroke-miterlimit="10" stroke-dasharray="none" stroke-opacity="" data-original="#000000" class=""></path><path d="M0 0v38.155m154.116 0V-70.668H0v35.887" style="stroke-width:15;stroke-linecap:round;stroke-linejoin:round;stroke-miterlimit:10;stroke-dasharray:none;stroke-opacity:1" transform="translate(181.635 299.951)" fill="none" stroke="#000000" stroke-width="15" stroke-linecap="round" stroke-linejoin="round" stroke-miterlimit="10" stroke-dasharray="none" stroke-opacity="" data-original="#000000" class=""></path><path d="M0 0v0c12.444 0 22.648-10.205 22.648-22.677v-50.316h-45.325v50.316C-22.677-10.205-12.472 0 0 0Z" style="stroke-width:15;stroke-linecap:round;stroke-linejoin:round;stroke-miterlimit:10;stroke-dasharray:none;stroke-opacity:1" transform="translate(258.707 302.276)" fill="none" stroke="#000000" stroke-width="15" stroke-linecap="round" stroke-linejoin="round" stroke-miterlimit="10" stroke-dasharray="none" stroke-opacity="" data-original="#000000" class=""></path></g></g></svg>