<svg xmlns="http://www.w3.org/2000/svg" version="1.1" xmlns:xlink="http://www.w3.org/1999/xlink" width="512" height="512" x="0" y="0" viewBox="0 0 512 512" style="enable-background:new 0 0 512 512" xml:space="preserve" class=""><g><path fill="#e2ecf6" d="M7.5 157.63h497v346.741H7.5z" opacity="1" data-original="#e2ecf6" class=""></path><path fill="#c5d9ec" d="M470.883 199.14v263.722H41.117V199.14z" opacity="1" data-original="#c5d9ec" class=""></path><path fill="#6987a0" d="M167.353 354.214H94.179v34.064h19.555v28.387h34.064v-28.387h19.555zM292.587 354.214h-73.174v34.064h19.555v28.387h34.064v-28.387h19.555zM417.821 354.214h-73.174v34.064h19.555v28.387h34.064v-28.387h19.555zM112.229 283.797h37.075v37.075h-37.075zM237.463 285.12h37.075v37.075h-37.075zM362.697 286.443h37.075v37.075h-37.075z" opacity="1" data-original="#6987a0" class=""></path><path fill="#ff8f75" d="M335 156.889h-30V122.7C305 59.25 356.62 7.63 420.07 7.63h84.43v30h-84.43c-46.908 0-85.07 38.162-85.07 85.07z" opacity="1" data-original="#ff8f75"></path><path fill="#ff8f75" d="M398.153 157.385h-30v-15.871c0-40.189 32.696-72.886 72.885-72.886H504.5v30h-63.461c-23.647 0-42.885 19.238-42.885 42.886v15.871zM177 156.889h30V122.7C207 59.25 155.38 7.63 91.93 7.63H7.5v30h84.43c46.908 0 85.07 38.162 85.07 85.07z" opacity="1" data-original="#ff8f75"></path><path fill="#ff8f75" d="M113.847 157.385h30v-15.871c0-40.189-32.696-72.886-72.885-72.886H7.5v30h63.461c23.647 0 42.885 19.238 42.885 42.886v15.871zM240.997 7.63h30v149.259h-30z" opacity="1" data-original="#ff8f75"></path><path fill="#bed5e9" d="M7.5 157.63h20v346.741h-20z" opacity="1" data-original="#bed5e9"></path><path fill="#85b0d7" d="M41.117 199.14h20v263.722h-20z" opacity="1" data-original="#85b0d7"></path><path fill="#57758d" d="M114.179 388.278v-34.064h-20v34.064h19.555v28.387h20v-28.387zM239.413 388.278v-34.064h-20v34.064h19.555v28.387h20v-28.387zM364.647 388.278v-34.064h-20v34.064h19.555v28.387h20v-28.387zM112.229 283.796h20v37.075h-20zM237.463 285.12h20v37.075h-20zM362.697 286.443h20v37.075h-20z" opacity="1" data-original="#57758d"></path><g fill="#d03582"><path d="M440.07 7.63h-20C356.62 7.63 305 59.25 305 122.7v34.188h20V122.7C325 59.25 376.62 7.63 440.07 7.63zM461.039 68.628h-20c-40.189 0-72.885 32.696-72.885 72.886v15.871h20v-15.871c-.001-40.19 32.696-72.886 72.885-72.886zM7.5 7.63h20v30h-20zM111.93 37.63h-20c46.908 0 85.07 38.162 85.07 85.07v34.188h20V122.7c0-46.908-38.163-85.07-85.07-85.07zM7.5 68.628h20v30h-20zM90.961 98.628h-20c23.647 0 42.885 19.238 42.885 42.886v15.871h20v-15.871c.001-23.648-19.238-42.886-42.885-42.886zM240.997 7.63h20v149.259h-20z" fill="#d03582" opacity="1" data-original="#d03582"></path></g><path d="M462.67 165.13H497v331.74H15V165.13h432.67v-15H0v361.74h512V150.13h-49.33z" fill="#000000" opacity="1" data-original="#000000" class=""></path><path d="M478.38 191.64H33.62v278.72h53.06v-15H48.62V206.64h414.76v248.72h-361.7v15h376.7z" fill="#000000" opacity="1" data-original="#000000" class=""></path><path d="M86.679 395.778h19.555v28.386h49.063v-28.386h19.555v-49.063H86.679zm15-34.063h58.174v19.063h-19.555v28.386h-19.063v-28.386H101.68v-19.063zM211.913 395.778h19.555v28.386h49.063v-28.386h19.555v-49.063h-88.174v49.063zm15-34.063h58.174v19.063h-19.555v28.386h-19.063v-28.386h-19.555v-19.063zM337.147 395.778h19.555v28.386h49.063v-28.386h19.555v-49.063h-88.174v49.063zm15-34.063h58.174v19.063h-19.555v28.386h-19.063v-28.386h-19.555v-19.063zM104.729 276.297v52.074h52.075v-52.074zm37.075 37.074h-22.075v-22.074h22.075zM229.962 277.62v52.074h52.075V277.62zm37.076 37.074h-22.075V292.62h22.075zM355.196 278.942v52.075h52.075v-52.075zm37.075 37.076h-22.075v-22.075h22.075zM420.07.13C352.485.13 297.5 55.114 297.5 122.7v4.93h15v-4.93c0-59.314 48.256-107.57 107.57-107.57H497v15h-76.93c-51.043 0-92.57 41.527-92.57 92.57v4.93h15v-4.93c0-42.772 34.798-77.57 77.57-77.57H512v-45h-91.93z" fill="#000000" opacity="1" data-original="#000000" class=""></path><path d="m362.117 126.204 14.727 2.852c5.938-30.667 32.937-52.926 64.197-52.926H497v15h-55.96c-21.525 0-40.684 13.69-47.674 34.066l14.188 4.867c4.911-14.315 18.368-23.934 33.486-23.934H512v-45h-70.96c-38.43.001-71.623 27.369-78.923 65.075zM169.5 122.7v4.93h15v-4.93c0-51.043-41.527-92.57-92.57-92.57H15v-15h76.93c59.314 0 107.57 48.256 107.57 107.57v4.93h15v-4.93C214.5 55.114 159.516.13 91.93.13H0v45h91.93c42.772 0 77.57 34.798 77.57 77.57z" fill="#000000" opacity="1" data-original="#000000" class=""></path><path d="m104.446 130.063 14.188-4.867C111.644 104.82 92.485 91.13 70.96 91.13H15v-15h55.96c31.26 0 58.259 22.259 64.197 52.926l14.727-2.852C142.583 88.498 109.39 61.13 70.96 61.13H0v45h70.96c15.118 0 28.575 9.618 33.486 23.933zM248.5 15.13h15v112.5h15V.13h-45v127.5h15z" fill="#000000" opacity="1" data-original="#000000" class=""></path><path fill="#ffffff" d="M347.5 245.63h-123v-15h123zm-138 0h-15v-15h15zm-30 0h-15v-15h15z" opacity="1" data-original="#ffffff" class=""></path></g></svg>