<svg xmlns="http://www.w3.org/2000/svg" version="1.1" xmlns:xlink="http://www.w3.org/1999/xlink" width="512" height="512" x="0" y="0" viewBox="0 0 512 512" style="enable-background:new 0 0 512 512" xml:space="preserve" class=""><g><path d="M329.535 113.326c32.984-35.564 86.653-35.564 119.637 0" style="stroke-width:15;stroke-linecap:round;stroke-linejoin:round;stroke-miterlimit:10;" fill="none" stroke="#000000" stroke-width="15" stroke-linecap="round" stroke-linejoin="round" stroke-miterlimit="10" data-original="#000000" class=""></path><path d="M347.773 132.99c22.928-24.721 60.234-24.721 83.162 0M366.01 152.653c12.892-13.901 33.795-13.901 46.687 0" style="stroke-width:15;stroke-linecap:round;stroke-linejoin:round;stroke-miterlimit:10;" fill="none" stroke="#000000" stroke-width="15" stroke-linecap="round" stroke-linejoin="round" stroke-miterlimit="10" data-original="#000000" class=""></path><path d="M262.848 214.411c-21.329 19.849-49.921 31.998-81.355 31.998-42.275 0-79.42-21.96-100.652-55.095v149.111c0 55.588 45.063 100.651 100.651 100.651 33.431 0 63.05-16.303 81.355-41.388V214.411z" style="" fill="#f5f8f9" data-original="#f5f8f9" class=""></path><path d="M122.994 340.425V231.124a120.034 120.034 0 0 1-42.152-39.81v149.111c0 55.588 45.063 100.651 100.651 100.651 7.232 0 14.284-.766 21.083-2.216-45.472-9.685-79.582-50.074-79.582-98.435z" style="" fill="#e8edf2" data-original="#e8edf2" class=""></path><path d="M80.842 191.314v149.111c0 8.307 1.013 16.376 2.911 24.097M97.924 396.537c18.074 26.864 48.757 44.539 83.569 44.539h0c33.431 0 63.05-16.303 81.355-41.388" style="stroke-width:15;stroke-linecap:round;stroke-linejoin:round;stroke-miterlimit:10;" fill="none" stroke="#000000" stroke-width="15" stroke-linecap="round" stroke-linejoin="round" stroke-miterlimit="10" data-original="#000000" class=""></path><path d="M262.848 213.912c0-14.242 9.928-26.158 23.239-29.226 9.466-17.113 14.861-36.791 14.861-57.732C300.948 60.982 247.466 7.5 181.493 7.5S62.039 60.982 62.039 126.955 115.521 246.41 181.494 246.41c31.434 0 60.026-12.148 81.355-31.997v-.501z" style="" fill="#d9e7ec" data-original="#d9e7ec" class=""></path><path d="M262.848 213.912c0-14.242 9.928-26.158 23.239-29.226 9.466-17.113 14.861-36.791 14.861-57.732C300.948 60.982 247.466 7.5 181.493 7.5S62.039 60.982 62.039 126.955 115.521 246.41 181.494 246.41c31.434 0 60.026-12.148 81.355-31.997v-.501z" style="stroke-width:15;stroke-linecap:round;stroke-linejoin:round;stroke-miterlimit:10;" fill="none" stroke="#000000" stroke-width="15" stroke-linecap="round" stroke-linejoin="round" stroke-miterlimit="10" data-original="#000000" class=""></path><circle cx="181.493" cy="126.955" r="91.803" style="" transform="rotate(-45.001 181.493 126.957)" fill="#c5d3dd" data-original="#c5d3dd"></circle><path d="M132 126.955c0-43.342 30.192-79.76 70.648-89.339a91.7 91.7 0 0 0-21.155-2.464c-50.621 0-91.803 41.182-91.803 91.803s41.182 91.803 91.803 91.803c7.279 0 14.361-.856 21.155-2.464C162.192 206.715 132 170.297 132 126.955z" style="" fill="#b6c4cf" data-original="#b6c4cf"></path><path d="M271.529 109c-8.372-42.054-45.558-73.848-90.035-73.848-50.621 0-91.803 41.182-91.803 91.803s41.182 91.803 91.803 91.803c44.797 0 82.196-32.254 90.21-74.758" style="stroke-width:15;stroke-linecap:round;stroke-linejoin:round;stroke-miterlimit:10;" fill="none" stroke="#000000" stroke-width="15" stroke-linecap="round" stroke-linejoin="round" stroke-miterlimit="10" data-original="#000000" class=""></path><circle cx="139.186" cy="126.955" r="13.826" style="" fill="#9facba" data-original="#9facba"></circle><circle cx="223.8" cy="126.955" r="13.826" style="" fill="#9facba" data-original="#9facba"></circle><circle cx="139.186" cy="126.955" r="13.826" style="stroke-width:15;stroke-linecap:round;stroke-linejoin:round;stroke-miterlimit:10;" fill="none" stroke="#000000" stroke-width="15" stroke-linecap="round" stroke-linejoin="round" stroke-miterlimit="10" data-original="#000000" class=""></circle><circle cx="223.8" cy="126.955" r="13.826" style="stroke-width:15;stroke-linecap:round;stroke-linejoin:round;stroke-miterlimit:10;" fill="none" stroke="#000000" stroke-width="15" stroke-linecap="round" stroke-linejoin="round" stroke-miterlimit="10" data-original="#000000" class=""></circle><path d="M195.319 36.194a92.17 92.17 0 0 0-27.652 0v17.543c0 7.636 6.19 13.826 13.826 13.826s13.826-6.19 13.826-13.826V36.194z" style="" fill="#9facba" data-original="#9facba"></path><path d="M195.319 36.194a92.17 92.17 0 0 0-27.652 0v17.543c0 7.636 6.19 13.826 13.826 13.826h0c7.636 0 13.826-6.19 13.826-13.826V36.194z" style="stroke-width:15;stroke-linecap:round;stroke-linejoin:round;stroke-miterlimit:10;" fill="none" stroke="#000000" stroke-width="15" stroke-linecap="round" stroke-linejoin="round" stroke-miterlimit="10" data-original="#000000" class=""></path><path d="M167.667 217.715a92.17 92.17 0 0 0 27.652 0v-27.162c0-7.636-6.19-13.826-13.826-13.826s-13.826 6.19-13.826 13.826v27.162z" style="" fill="#9facba" data-original="#9facba"></path><path d="M167.667 217.715a92.17 92.17 0 0 0 27.652 0v-27.162c0-7.636-6.19-13.826-13.826-13.826h0c-7.636 0-13.826 6.19-13.826 13.826v27.162zM123.842 360.092c0-31.789 25.862-57.651 57.651-57.651" style="stroke-width:15;stroke-linecap:round;stroke-linejoin:round;stroke-miterlimit:10;" fill="none" stroke="#000000" stroke-width="15" stroke-linecap="round" stroke-linejoin="round" stroke-miterlimit="10" data-original="#000000" class=""></path><path d="M181.493 302.44c1.683 0 3.35.073 4.997.215" style="stroke-width:15;stroke-linecap:round;stroke-linejoin:round;" fill="none" stroke="#000000" stroke-width="15" stroke-linecap="round" stroke-linejoin="round" data-original="#000000" class=""></path><path d="M206.8 308.297c14.64 7.182 25.809 20.392 30.25 36.373" style="stroke-width:15;stroke-linecap:round;stroke-linejoin:round;stroke-dasharray:8.4754,21.1886;" fill="none" stroke="#000000" stroke-width="15" stroke-linecap="round" stroke-linejoin="round" stroke-dasharray="8.4754,21.1886" data-original="#000000" class=""></path><path d="M238.93 355.094a58.17 58.17 0 0 1 .215 4.997" style="stroke-width:15;stroke-linecap:round;stroke-linejoin:round;" fill="none" stroke="#000000" stroke-width="15" stroke-linecap="round" stroke-linejoin="round" data-original="#000000" class=""></path><circle cx="181.493" cy="360.092" r="27.652" style="" transform="rotate(-45.001 181.49 360.096)" fill="#6bd9e7" data-original="#6bd9e7"></circle><path d="M179 360.092c0-10.718 6.134-20.025 15.072-24.612a27.473 27.473 0 0 0-12.579-3.04c-15.247 0-27.651 12.404-27.651 27.651s12.404 27.652 27.651 27.652a27.47 27.47 0 0 0 12.579-3.039C185.134 380.117 179 370.81 179 360.092z" style="" fill="#2ed1e2" data-original="#2ed1e2" class=""></path><circle cx="181.493" cy="360.092" r="27.652" style="stroke-width:15;stroke-linecap:round;stroke-linejoin:round;stroke-miterlimit:10;" transform="rotate(-45.001 181.49 360.096)" fill="none" stroke="#000000" stroke-width="15" stroke-linecap="round" stroke-linejoin="round" stroke-miterlimit="10" data-original="#000000" class=""></circle><path d="M419.961 504.5H292.848c-16.569 0-30-13.431-30-30V213.912c0-16.569 13.431-30 30-30h127.113c16.569 0 30 13.431 30 30V474.5c0 16.569-13.431 30-30 30z" style="" fill="#fee97d" data-original="#fee97d" class=""></path><path d="M304.887 474.5V213.912c0-16.569 13.431-30 30-30h-42.039c-16.569 0-30 13.431-30 30V474.5c0 16.568 13.431 30 30 30h42.039c-16.569 0-30-13.432-30-30z" style="" fill="#fedf30" data-original="#fedf30" class=""></path><path d="M449.961 317V213.912c0-16.569-13.431-30-30-30H292.848c-16.569 0-30 13.431-30 30V474.5c0 16.568 13.431 30 30 30h127.113c16.569 0 30-13.432 30-30V352" style="stroke-width:15;stroke-linecap:round;stroke-linejoin:round;stroke-miterlimit:10;" fill="none" stroke="#000000" stroke-width="15" stroke-linecap="round" stroke-linejoin="round" stroke-miterlimit="10" data-original="#000000" class=""></path><path d="M398.352 469.787h-83.894c-5.714 0-10.347-4.632-10.347-10.347v-18.277c0-5.714 4.632-10.347 10.347-10.347h83.894c5.714 0 10.347 4.632 10.347 10.347v18.277c0 5.714-4.633 10.347-10.347 10.347z" style="" fill="#4f66d0" data-original="#4f66d0"></path><path d="M346.412 459.44v-18.277c0-5.714 4.632-10.347 10.347-10.347h-42.301c-5.714 0-10.347 4.632-10.347 10.347v18.277c0 5.714 4.632 10.347 10.347 10.347h42.301c-5.714 0-10.347-4.633-10.347-10.347z" style="" fill="#314dc9" data-original="#314dc9"></path><path d="M398.352 469.787h-83.894c-5.714 0-10.347-4.632-10.347-10.347v-18.277c0-5.714 4.632-10.347 10.347-10.347h83.894c5.714 0 10.347 4.632 10.347 10.347v18.277c0 5.714-4.633 10.347-10.347 10.347zM317.608 213.521h77.594M383.698 296.849c15.073 15.073 15.073 39.512 0 54.586-15.073 15.073-39.512 15.073-54.586 0s-15.073-39.512 0-54.586" style="stroke-width:15;stroke-linecap:round;stroke-linejoin:round;stroke-miterlimit:10;" fill="none" stroke="#000000" stroke-width="15" stroke-linecap="round" stroke-linejoin="round" stroke-miterlimit="10" data-original="#000000" class=""></path><path d="M356.405 327.23V284" style="stroke:#000000;stroke-width:15;stroke-linecap:round;stroke-linejoin:round;stroke-miterlimit:10;" data-original="#000000"></path></g></svg>