<svg xmlns="http://www.w3.org/2000/svg" version="1.1" xmlns:xlink="http://www.w3.org/1999/xlink" width="512" height="512" x="0" y="0" viewBox="0 0 496 496" style="enable-background:new 0 0 512 512" xml:space="preserve" class=""><g><path d="M470.448 283.71a145.467 145.467 0 0 1 1.152-89.184 8 8 0 0 0-7.6-10.528H320a8.057 8.057 0 0 0-6.4 3.504 8.351 8.351 0 0 0-1.04 7.392 145.596 145.596 0 0 1 1.032 88.8 581.426 581.426 0 0 0-16.488 68.304H256a8 8 0 0 0-8 8v24h-16.76l-29.84-184H256v8h-16v16h16v8h-16v16h16v8h16v-8h16v-16h-16v-8h16v-16h-16v-8h8v-16h-80v-96h32v8h-16v16h16v8h-16v16h16v8h16v-8h16v-16h-16v-8h16v-16h-16v-8h8v-16h-56v-24a8 8 0 0 0-2.88-6.144l-48-40a8 8 0 0 0-10.24 0l-48 40A8 8 0 0 0 88 47.998v24H32v16h8v8H24v16h16v8H24v16h16v8h16v-8h16v-16H56v-8h16v-16H56v-8h32v96H8v16h8v8H0v16h16v8H0v16h16v8h16v-8h16v-16H32v-8h16v-16H32v-8h54.6l-46.496 286.72a8 8 0 0 0 11.576 8.384L144 447.238v40.76a8 8 0 0 0 8 8h336a8 8 0 0 0 8-8v-34.272a577.41 577.41 0 0 0-25.552-170.016zm-17.168-83.712a160.505 160.505 0 0 0-3.256 16h-116c-.84-5.36-1.872-10.696-3.256-16zm-309.28-34 40.616 30.464 1.752 10.784L144 229.206l-42.4-21.96 1.752-10.784zm45.064 57.872 5.08 31.344-32.8-16.992zm-31.728-67.872 26.664-20v40zm-13.336-10-34.664-26 34.664-26 34.664 26zm13.336-62 26.664-20v40zm-13.336-10-24-18h48zm-13.336 10-26.664 20v-40zm0 72-26.664 20v-40zM98.936 223.87l27.688 14.352-32.8 16.992zm-11.664 71.928 3.392-20.912L144 247.198l53.336 27.656 3.392 20.912L144 325.206zm39.352 38.4-49.768 25.8 7.72-47.6zm76.8-21.8 7.72 47.6-49.768-25.8zM144 18.398l25.904 21.6h-51.808zm-85.552 455.2 10.576-65.216 48.312 25.056 7.368-14.208-52.984-27.504 1.944-12L144 343.198l70.336 36.472.696 4.296H152a8 8 0 0 0-8 8v37.208zm237.552 6.4H160v-80h96a8 8 0 0 0 8-8v-24h40v24a8 8 0 0 0 8 8h24v80zm184 0H352v-88a8 8 0 0 0-8-8h-24v-24a7.904 7.904 0 0 0-6.68-7.736 565.307 565.307 0 0 1 15.544-63.848A161.242 161.242 0 0 0 336 240.91c0-2.976-.12-5.944-.28-8.912h112.576c-.16 2.968-.288 5.936-.288 8.912a161.079 161.079 0 0 0 7.152 47.504A561.574 561.574 0 0 1 480 453.726z" fill="#000000" opacity="1" data-original="#000000" class=""></path><path d="M392 263.998c-26.51 0-48 21.49-48 48s21.49 48 48 48 48-21.49 48-48c-.031-26.496-21.503-47.969-48-48zm-32 48a31.936 31.936 0 0 1 22.208-30.304l-13.36 26.728A8 8 0 0 0 376 319.998h17.056L378.96 341.15A32 32 0 0 1 360 311.998zm36.592 31.536 18.064-27.096a8 8 0 0 0-6.656-12.44h-19.048l11.384-22.76c16.995 4.5 27.123 21.926 22.623 38.92a31.831 31.831 0 0 1-26.359 23.376zM232 415.998h-48a8 8 0 0 0-8 8v32a8 8 0 0 0 8 8h48a8 8 0 0 0 8-8v-32a8 8 0 0 0-8-8zm-8 32h-32v-16h32zM312 415.998h-48a8 8 0 0 0-8 8v32a8 8 0 0 0 8 8h48a8 8 0 0 0 8-8v-32a8 8 0 0 0-8-8zm-8 32h-32v-16h32zM456 91.998c0 6.627-5.373 12-12 12-15.464 0-28 12.536-28 28v36h16v-36c0-6.627 5.373-12 12-12 15.464 0 28-12.536 28-28 0-6.627 5.373-12 12-12h12v-16h-12c-15.464 0-28 12.536-28 28zM368 99.998a4 4 0 0 1 4-4c11.046 0 20-8.954 20-20v-20c0-17.673 14.327-32 32-32h72v-16h-72c-26.499.026-47.974 21.501-48 48v20a4 4 0 0 1-4 4c-11.046 0-20 8.954-20 20v68h16z" fill="#000000" opacity="1" data-original="#000000" class=""></path></g></svg>