<svg xmlns="http://www.w3.org/2000/svg" version="1.1" xmlns:xlink="http://www.w3.org/1999/xlink" width="512" height="512" x="0" y="0" viewBox="0 0 512 512" style="enable-background:new 0 0 512 512" xml:space="preserve" class=""><g><path d="M496 280.838V200c0-13.234-10.767-24-24-24h-16V24c0-13.234-10.767-24-24-24H224c-13.233 0-24 10.766-24 24v8h-24c-13.233 0-24 10.766-24 24v24H56c-30.879 0-56 25.122-56 56v320c0 30.878 25.121 56 56 56h416c13.233 0 24-10.766 24-24v-80.838c9.223-2.619 16-11.111 16-21.162v-84c0-10.051-6.777-18.542-16-21.162zM216 24c0-4.411 3.589-8 8-8h208c4.411 0 8 3.589 8 8v152h-32.401c-4.027-40.37-38.187-72-79.599-72s-75.572 31.63-79.599 72H216V24zm175.482 152H264.518c3.951-31.525 30.903-56 63.482-56s59.531 24.475 63.482 56zM168 56c0-4.411 3.589-8 8-8h24v128h-32V56zM56 96h96v80c-102.543 0-96.516.025-98.04-.052-20.101-.999-36.718-17.116-37.889-37.646C14.733 115.371 33.059 96 56 96zm416 400H56c-22.056 0-40-17.944-40-40 0-302.424-.197-281.005.399-280.406 9.208 9.218 21.071 14.824 33.873 16.115 3.653.368-23.031.291 421.728.291 4.411 0 8 3.589 8 8v80h-88c-35.29 0-64 28.71-64 64s28.71 64 64 64h88v80c0 4.411-3.589 8-8 8zm24-110c0 3.309-2.691 6-6 6h-98c-26.468 0-48-21.533-48-48s21.532-48 48-48h98c3.309 0 6 2.691 6 6z" fill="#000000" opacity="1" data-original="#000000" class=""></path><path d="M392 320c-13.233 0-24 10.766-24 24s10.767 24 24 24 24-10.766 24-24-10.767-24-24-24zm0 32c-4.411 0-8-3.589-8-8s3.589-8 8-8 8 3.589 8 8-3.589 8-8 8zM240 120a8 8 0 0 0 8-8V70.988c11.229-2.901 20.087-11.759 22.987-22.988H288a8 8 0 0 0 0-16h-24a8 8 0 0 0-8 8c0 8.822-7.178 16-16 16a8 8 0 0 0-8 8v48a8 8 0 0 0 8 8zM368 48h17.013c2.9 11.229 11.759 20.087 22.987 22.988V112a8 8 0 0 0 16 0V64a8 8 0 0 0-8-8c-8.822 0-16-7.178-16-16a8 8 0 0 0-8-8h-24a8 8 0 0 0 0 16zM448 432a8 8 0 0 0-8 8v8c0 4.411-3.589 8-8 8H72a8 8 0 0 0 0 16h360c13.233 0 24-10.766 24-24v-8a8 8 0 0 0-8-8zM72 232h360c4.411 0 8 3.589 8 8v8a8 8 0 0 0 16 0v-8c0-13.234-10.767-24-24-24H72a8 8 0 0 0 0 16z" fill="#000000" opacity="1" data-original="#000000" class=""></path></g></svg>