<svg xmlns="http://www.w3.org/2000/svg" version="1.1" xmlns:xlink="http://www.w3.org/1999/xlink" width="512" height="512" x="0" y="0" viewBox="0 0 490.453 490.453" style="enable-background:new 0 0 512 512" xml:space="preserve" class=""><g><path d="M97.92 239.888v37.547h-16v-37.547H60.587v96.213H81.92v-37.333h16v37.333h21.333v-96.213zM186.453 239.888h-37.547c-5.891 0-10.667 4.776-10.667 10.667v74.88c0 5.891 4.776 10.667 10.667 10.667h37.547c5.891 0 10.667-4.776 10.667-10.667v-74.88c0-5.891-4.776-10.667-10.667-10.667zM176 314.981h-16v-53.547h16v53.547zM216.107 239.888v21.333h18.56v74.88H256v-74.88h18.773v-21.333zM352 261.435v-21.333h-47.573c-5.891 0-10.667 4.776-10.667 10.667v74.88c.116 5.808 4.858 10.455 10.667 10.453H352v-21.333h-36.907v-16H352v-21.333h-36.907v-16H352zM392.747 314.768v-74.88h-21.333v85.333c-.118 5.89 4.561 10.76 10.451 10.878l.215.002h48v-21.333h-37.333z" fill="#000000" opacity="1" data-original="#000000" class=""></path><path d="M455.253 141.968h-133.76l31.787-31.147a25.6 25.6 0 0 0 6.4-25.813 25.387 25.387 0 0 0-21.333-17.28l-48.213-7.253-21.334-44.16c-6.136-12.607-21.33-17.853-33.936-11.717a25.387 25.387 0 0 0-11.717 11.717l-21.333 44.373-48.853 7.04a25.385 25.385 0 0 0-21.333 17.067 24.96 24.96 0 0 0 7.04 26.24l30.72 30.72H35.2C15.725 141.872 0 157.693 0 177.168v206.933c.116 19.392 15.808 35.084 35.2 35.2h46.72v47.787H48.64v21.333h152.747v-21.333h-33.28v-47.573H322.56v47.573h-33.28v21.333h152.747v-21.333h-33.28v-47.573h46.507c19.44 0 35.2-15.76 35.2-35.2V177.168c-.117-19.392-15.809-35.083-35.201-35.2zm-302.72-46.08a3.84 3.84 0 0 1-.853-4.48 4.054 4.054 0 0 1 3.2-2.773l54.4-7.893a10.667 10.667 0 0 0 8.107-6.187l24.32-49.28a4.053 4.053 0 0 1 7.467 0l24.32 49.28a10.667 10.667 0 0 0 8.107 5.76l54.4 7.893a4.054 4.054 0 0 1 3.2 2.773 4.268 4.268 0 0 1 0 4.267l-39.467 38.4a10.668 10.668 0 0 0-2.987 9.387l9.173 54.4a4.053 4.053 0 0 1-1.707 3.84h-4.267l-24.32-12.8-24.32-12.8a10.47 10.47 0 0 0-4.053 0 10.665 10.665 0 0 0-4.907 1.28l-50.56 25.6a4.48 4.48 0 0 1-4.693 0 3.837 3.837 0 0 1-1.493-3.84l7.467-42.667 1.92-10.667a10.666 10.666 0 0 0-2.987-9.387l-39.467-40.106zm-5.76 371.2h-42.667v-47.573h42.667v47.573zm240.64 0h-42.667v-47.573h42.667v47.573zm80.64-81.92c0 7.658-6.208 13.867-13.867 13.867H35.2c-7.658 0-13.867-6.208-13.867-13.867V176.741c0-7.658 6.208-13.867 13.867-13.867h134.827l-5.333 31.147a24.958 24.958 0 0 0 10.027 24.747 25.599 25.599 0 0 0 26.88 2.133l42.667-23.04L288 220.901a24.109 24.109 0 0 0 6.4 2.347H307.413a23.866 23.866 0 0 0 6.4-3.413 25.173 25.173 0 0 0 10.453-17.707 24.565 24.565 0 0 0 0-7.04v-3.2l-4.693-27.733h134.613c7.658 0 13.867 6.208 13.867 13.867v207.146z" fill="#000000" opacity="1" data-original="#000000" class=""></path></g></svg>