<!-- <svg xmlns="http://www.w3.org/2000/svg" version="1.1" xmlns:xlink="http://www.w3.org/1999/xlink" width="512" height="512" x="0" y="0" viewBox="0 0 512 512" style="enable-background:new 0 0 512 512" xml:space="preserve" class=""><g><linearGradient id="a" x1="15.041" x2="496.959" y1="256" y2="256" gradientUnits="userSpaceOnUse"><stop offset="0" stop-color="#FF9F00"></stop><stop offset=".008" stop-color="#FF9F00"></stop><stop offset=".304" stop-color="#FF9F00"></stop><stop offset=".577" stop-color="#FF9F00"></stop><stop offset=".818" stop-color="#FF9F00"></stop><stop offset="1" stop-color="#FF9F00"></stop></linearGradient><path fill="url(#a)" d="M131.181 43.09a7.2 7.2 0 1 1 12.468-7.2L168.538 79a7.2 7.2 0 1 1-12.468 7.2zM256 64.642a7.2 7.2 0 0 0 7.2-7.2V7.2a7.2 7.2 0 1 0-14.4 0v50.243a7.2 7.2 0 0 0 7.2 7.199zm162.249 93.785a7.158 7.158 0 0 0 3.592-.966l41.909-24.19a7.2 7.2 0 1 0-7.2-12.468l-41.909 24.19a7.2 7.2 0 0 0 3.605 13.434zm-370-25.156 41.908 24.19a7.2 7.2 0 1 0 7.2-12.468L55.448 120.8a7.2 7.2 0 1 0-7.2 12.468zm297.819-44.443a7.2 7.2 0 0 0 9.834-2.634l24.889-43.1a7.2 7.2 0 1 0-12.468-7.2L343.434 79a7.2 7.2 0 0 0 2.634 9.828zm-123.934 130.89a10.492 10.492 0 0 0 0 20.984H232.6v-10.5a10.486 10.486 0 0 0-10.466-10.484zm78.219 10.487a10.492 10.492 0 0 0-20.984 0v10.5h10.5a10.5 10.5 0 0 0 10.484-10.5zM246.994 255.1v145.627h17.981V255.1zM256 100.2c-77.653 0-140.821 63.157-140.821 140.79 0 53.04 25.354 83.4 49.885 112.763 12.162 14.568 24.715 29.61 33.6 46.974H232.6V255.1h-10.466a24.891 24.891 0 1 1 24.86-24.89v10.5h17.981v-10.5a24.891 24.891 0 1 1 24.891 24.89h-10.5v145.627h33.969c8.883-17.364 21.426-32.395 33.588-46.964C371.447 324.4 396.79 294.04 396.79 240.99c0-77.633-63.157-140.79-140.79-140.79zm-54.613 338.67h109.226v-23.749H201.387zm0 26.844a12.1 12.1 0 0 0 12.09 12.091h85.046a12.1 12.1 0 0 0 12.09-12.091v-12.44H201.387zM256 512a20.151 20.151 0 0 0 20.12-19.791h-40.271A20.177 20.177 0 0 0 256 512zm204.514-157.233-38.79-22.381a7.2 7.2 0 1 0-7.195 12.47l38.79 22.381a7.2 7.2 0 0 0 7.195-12.47zm29.247-117.042h-46.484a7.2 7.2 0 0 0 0 14.4h46.484a7.2 7.2 0 0 0 0-14.4zm-413.868 7.2a7.2 7.2 0 0 0-7.2-7.2H22.239a7.2 7.2 0 0 0 0 14.4h46.455a7.2 7.2 0 0 0 7.199-7.201zm14.355 87.462-38.79 22.381a7.2 7.2 0 1 0 7.194 12.47l38.791-22.381a7.2 7.2 0 0 0-7.195-12.47z" opacity="1" data-original="url(#a)" class=""></path></g></svg> -->

<svg xmlns="http://www.w3.org/2000/svg" version="1.1" xmlns:xlink="http://www.w3.org/1999/xlink" width="512" height="512" x="0" y="0" viewBox="0 0 512 512" style="enable-background:new 0 0 512 512" xml:space="preserve" class=""><g><linearGradient id="a" x1="15.041" x2="496.959" y1="256" y2="256" gradientUnits="userSpaceOnUse"><stop offset="0" stop-color="#0056e9"></stop><stop offset=".008" stop-color="#0057e9"></stop><stop offset=".304" stop-color="#007de2"></stop><stop offset=".577" stop-color="#0098dc"></stop><stop offset=".818" stop-color="#00a9d9"></stop><stop offset="1" stop-color="#00afd8"></stop></linearGradient><path fill="url(#a)" d="M131.181 43.09a7.2 7.2 0 1 1 12.468-7.2L168.538 79a7.2 7.2 0 1 1-12.468 7.2zM256 64.642a7.2 7.2 0 0 0 7.2-7.2V7.2a7.2 7.2 0 1 0-14.4 0v50.243a7.2 7.2 0 0 0 7.2 7.199zm162.249 93.785a7.158 7.158 0 0 0 3.592-.966l41.909-24.19a7.2 7.2 0 1 0-7.2-12.468l-41.909 24.19a7.2 7.2 0 0 0 3.605 13.434zm-370-25.156 41.908 24.19a7.2 7.2 0 1 0 7.2-12.468L55.448 120.8a7.2 7.2 0 1 0-7.2 12.468zm297.819-44.443a7.2 7.2 0 0 0 9.834-2.634l24.889-43.1a7.2 7.2 0 1 0-12.468-7.2L343.434 79a7.2 7.2 0 0 0 2.634 9.828zm-123.934 130.89a10.492 10.492 0 0 0 0 20.984H232.6v-10.5a10.486 10.486 0 0 0-10.466-10.484zm78.219 10.487a10.492 10.492 0 0 0-20.984 0v10.5h10.5a10.5 10.5 0 0 0 10.484-10.5zM246.994 255.1v145.627h17.981V255.1zM256 100.2c-77.653 0-140.821 63.157-140.821 140.79 0 53.04 25.354 83.4 49.885 112.763 12.162 14.568 24.715 29.61 33.6 46.974H232.6V255.1h-10.466a24.891 24.891 0 1 1 24.86-24.89v10.5h17.981v-10.5a24.891 24.891 0 1 1 24.891 24.89h-10.5v145.627h33.969c8.883-17.364 21.426-32.395 33.588-46.964C371.447 324.4 396.79 294.04 396.79 240.99c0-77.633-63.157-140.79-140.79-140.79zm-54.613 338.67h109.226v-23.749H201.387zm0 26.844a12.1 12.1 0 0 0 12.09 12.091h85.046a12.1 12.1 0 0 0 12.09-12.091v-12.44H201.387zM256 512a20.151 20.151 0 0 0 20.12-19.791h-40.271A20.177 20.177 0 0 0 256 512zm204.514-157.233-38.79-22.381a7.2 7.2 0 1 0-7.195 12.47l38.79 22.381a7.2 7.2 0 0 0 7.195-12.47zm29.247-117.042h-46.484a7.2 7.2 0 0 0 0 14.4h46.484a7.2 7.2 0 0 0 0-14.4zm-413.868 7.2a7.2 7.2 0 0 0-7.2-7.2H22.239a7.2 7.2 0 0 0 0 14.4h46.455a7.2 7.2 0 0 0 7.199-7.201zm14.355 87.462-38.79 22.381a7.2 7.2 0 1 0 7.194 12.47l38.791-22.381a7.2 7.2 0 0 0-7.195-12.47z" opacity="1" data-original="url(#a)" class=""></path></g></svg>