<svg xmlns="http://www.w3.org/2000/svg" version="1.1" xmlns:xlink="http://www.w3.org/1999/xlink" width="512" height="512" x="0" y="0" viewBox="0 0 60 60" style="enable-background:new 0 0 512 512" xml:space="preserve" class=""><g><path d="M35.7 44.717a6 6 0 1 0-7.392 0A10.01 10.01 0 0 0 22 54v4a2 2 0 0 0 2 2h16a2 2 0 0 0 2-2v-4a10.01 10.01 0 0 0-6.3-9.283ZM28 40a4 4 0 1 1 4 4 4 4 0 0 1-4-4Zm12 18H24v-4a8 8 0 0 1 16 0ZM2 42h18a2 2 0 0 0 2-2v-3c0-.013-.007-.023-.007-.036a.993.993 0 0 0-.062-.308c-.009-.022-.014-.045-.024-.066s-.006-.025-.012-.037L20 32.764V23a2 2 0 0 0-2-2H4a2 2 0 0 0-2 2v9.764L.105 36.553c-.006.012-.007.025-.013.037s-.014.044-.023.066a.993.993 0 0 0-.062.308c0 .012-.007.023-.007.036v3a2 2 0 0 0 2 2Zm0-2v-2h18v2Zm17.382-4H2.618l1-2h14.764ZM4 23h14v9H4ZM18 18h2.556a3.965 3.965 0 0 0 6.888 0h5.112a3.965 3.965 0 0 0 6.888 0H42a2 2 0 0 0 2-2v-2a1.993 1.993 0 0 0-1-1.722V6a4 4 0 0 0-4-4h-5a2 2 0 0 0-2-2H19a2 2 0 0 0-2 2v10.278A1.993 1.993 0 0 0 16 14v2a2 2 0 0 0 2 2Zm0-2v-2h2.556A3.959 3.959 0 0 0 20 16Zm6 2a2 2 0 1 1 2-2 2 2 0 0 1-2 2Zm4-2a3.959 3.959 0 0 0-.556-2h5.112A3.959 3.959 0 0 0 32 16Zm8 2a2 2 0 1 1 2-2 2 2 0 0 1-2 2Zm6-2h-2a3.959 3.959 0 0 0-.556-2H42ZM41 6v1h-3V4h1a2 2 0 0 1 2 2Zm-5-2v3a2 2 0 0 0 2 2h3v3h-7V4Zm-4-2v10H19V2ZM53.976 23.647A3.97 3.97 0 0 0 55 21v-2a2 2 0 0 0-2-2h-4a2 2 0 0 0-2 2v2a3.97 3.97 0 0 0 1.024 2.647C44.522 25.193 42 29.372 42 34.286 42 39.824 45.28 43 51 43s9-3.176 9-8.714c0-4.914-2.522-9.093-6.024-10.639ZM49 21v-2h4v2a2 2 0 0 1-4 0Zm2 20c-4.645 0-7-2.259-7-6.714C44 29.166 47.141 25 51 25s7 4.166 7 9.286C58 38.741 55.645 41 51 41Z" fill="#000000" opacity="1" data-original="#000000" class=""></path><path d="m7.293 25.293-1 1a1 1 0 1 0 1.414 1.414l1-1a1 1 0 0 0-1.414-1.414ZM13.293 25.293l-3 3a1 1 0 1 0 1.414 1.414l3-3a1 1 0 0 0-1.414-1.414ZM51 32a1 1 0 1 1 .867-1.5 1 1 0 0 0 1.731-1A2.993 2.993 0 0 0 52 28.2V28a1 1 0 0 0-2 0v.184A2.993 2.993 0 0 0 51 34a1 1 0 1 1-.867 1.5 1 1 0 0 0-1.731 1 2.993 2.993 0 0 0 1.6 1.3v.2a1 1 0 0 0 2 0v-.184A2.993 2.993 0 0 0 51 32ZM49.456 12.773l-.6-.058a1 1 0 0 0-.193 1.99l2.986.29a.825.825 0 0 0 .1.005 1 1 0 0 0 .994-.9l.29-2.986a1 1 0 1 0-1.99-.194l-.056.574a27.8 27.8 0 0 0-4.4-4.047 1 1 0 0 0-1.186 1.612 25.724 25.724 0 0 1 4.055 3.714ZM5.365 18.9a1 1 0 0 0 1.34-.452A25.769 25.769 0 0 1 12 11.277v.552a1 1 0 0 0 2 0V9a1 1 0 0 0-1-1h-2.828a1 1 0 0 0 0 2h.277a27.708 27.708 0 0 0-5.535 7.556 1 1 0 0 0 .451 1.344ZM11.469 45.749a1 1 0 0 0-.795-1.17l-2.947-.561a1 1 0 0 0-1.17.8L6 47.76a1 1 0 0 0 .8 1.17 1.116 1.116 0 0 0 .189.017 1 1 0 0 0 .981-.812l.137-.719a28.12 28.12 0 0 0 10.5 8.162.984.984 0 0 0 .407.087 1 1 0 0 0 .409-1.913 26.112 26.112 0 0 1-9.514-7.285l.4.077a1 1 0 0 0 1.16-.795ZM45.489 48.5a1 1 0 0 0-1.114.87l-.367 2.978a1 1 0 0 0 .87 1.114l2.977.366a.861.861 0 0 0 .124.008 1 1 0 0 0 .121-1.992l-.535-.066a28.174 28.174 0 0 0 4.988-5.187 1 1 0 0 0-1.61-1.188 26.14 26.14 0 0 1-4.661 4.842l.077-.631a1 1 0 0 0-.87-1.114Z" fill="#000000" opacity="1" data-original="#000000" class=""></path></g></svg>