<svg xmlns="http://www.w3.org/2000/svg" version="1.1" xmlns:xlink="http://www.w3.org/1999/xlink" width="512" height="512" x="0" y="0" viewBox="0 0 513.085 513" style="enable-background:new 0 0 512 512" xml:space="preserve" class=""><g><path d="M384.543 128.043h80v16h-80zM384.543 160.043h48v16h-48zM448.543 464.043h-32a64.065 64.065 0 0 1-45.566-19.098 64.065 64.065 0 0 1-18.434-45.84c.734-34.511 28.527-62.316 63.039-63.062h.961c35.332.035 63.965 28.668 64 64v8c0 13.254-10.746 24-24 24s-24-10.746-24-24v-8h16v8a8 8 0 0 0 16 0v-8a47.656 47.656 0 0 0-14.336-34.176 46.915 46.915 0 0 0-34.39-13.824c-25.754.86-46.43 21.543-47.274 47.297a48.052 48.052 0 0 0 13.828 34.375 48.05 48.05 0 0 0 34.172 14.328h32zm0 0" fill="#000000" opacity="1" data-original="#000000" class=""></path><path d="M416.543 432.043c-17.672 0-32-14.328-32-32s14.328-32 32-32 32 14.328 32 32-14.328 32-32 32zm0-48c-8.836 0-16 7.164-16 16s7.164 16 16 16 16-7.164 16-16-7.164-16-16-16zM50.883 146.387l80-80 11.312 11.316L62.2 157.7zM64.543 80.043h16v16h-16zM112.543 128.043h16v16h-16zM152.945 348.328l33.942-33.941 11.312 11.312-33.941 33.942zM151.574 301.695l11.313-11.312 11.316 11.312-11.316 11.313zM199.57 349.695l11.313-11.312 11.312 11.312-11.312 11.313zM304.543 32.043h16v16h-16zM192.543 32.043h16v16h-16zM224.543 32.043h64v16h-64zM256.543 432.043c-13.254 0-24 10.746-24 24s10.746 24 24 24 24-10.746 24-24-10.746-24-24-24zm0 32a8 8 0 1 1 0-16 8 8 0 0 1 0 16zm0 0" fill="#000000" opacity="1" data-original="#000000" class=""></path><path d="M418.941 208.043h93.602v-112h-112v-72c0-13.254-10.746-24-24-24h-240a23.999 23.999 0 0 0-23.023 17.598c-37.766-7.008-76.075 9.168-97.387 41.12s-21.528 73.536-.543 105.712c20.98 32.172 59.117 48.742 96.953 42.12v281.45c0 13.254 10.746 24 24 24h240a23.998 23.998 0 0 0 23.023-17.602c37.766 7.012 76.07-9.164 97.383-41.117 21.313-31.957 21.528-73.539.547-105.71-20.98-32.173-59.117-48.743-96.953-42.122v-85.16zm-282.398-192h240a8 8 0 0 1 8 8v40H179.551A96.338 96.338 0 0 0 129 21.809a7.893 7.893 0 0 1 7.543-5.766zm224 192v38.945l24-16v78.653c-38.305 13.57-63.93 49.765-64 90.402h-192V202.441a95.525 95.525 0 0 0 58.398-122.398h197.602v16h-48v112zm-264-16c-44.184 0-80-35.816-80-80s35.816-80 80-80 80 35.816 80 80c-.05 44.164-35.836 79.95-80 80zm280 304h-240a8 8 0 0 1-8-8v-72h193.45a96.139 96.139 0 0 0 62.093 74.23 7.895 7.895 0 0 1-7.543 5.77zm40-176c44.184 0 80 35.816 80 80s-35.816 80-80 80-80-35.816-80-80c.047-44.164 35.836-79.953 80-80zm-40-102.945v-25.055h-24v-80h144v80h-82.402zm0 0" fill="#000000" opacity="1" data-original="#000000" class=""></path><path d="m145.629 260.508 66.539 39.918 39.91 66.527 53.266-159.71zm38.066 4.176 79.352-26.457-46.29 46.296zm64.215 64.207-19.84-33.055 46.29-46.29zM290.89 317.703l11.313-11.312 24.004 24-11.312 11.312zM170.89 197.703l11.313-11.312 24.004 24-11.316 11.312zM.543 336.043h16v176h-16zM64.543 400.043h16v112h-16zM32.543 368.043h16v144h-16zm0 0" fill="#000000" opacity="1" data-original="#000000" class=""></path></g></svg>