<svg xmlns="http://www.w3.org/2000/svg" version="1.1" xmlns:xlink="http://www.w3.org/1999/xlink" width="512" height="512" x="0" y="0" viewBox="0 0 64 64" style="enable-background:new 0 0 512 512" xml:space="preserve" class=""><g><path d="M62.707 31.293 58 26.586V14h1a1 1 0 0 0 1-1V9a1 1 0 0 0-1-1H47a1 1 0 0 0-1 1v4a1 1 0 0 0 1 1h1v2.586L32.707 1.293a1 1 0 0 0-1.414 0l-30 30A1 1 0 0 0 1 32v6a1 1 0 0 0 1.707.707L5 36.414V57H4a1 1 0 0 0-1 1v4a1 1 0 0 0 1 1h56a1 1 0 0 0 1-1v-4a1 1 0 0 0-1-1h-1V36.414l2.293 2.293A1 1 0 0 0 63 38v-6a1 1 0 0 0-.293-.707ZM48 10h10v2H48Zm2 4h6v10.586l-6-6Zm9 47H5v-2h54Zm-2-4H7V34.414l25-25 25 25Zm4-21.414L32.707 7.293a1 1 0 0 0-1.414 0L3 35.586v-3.172l29-29 29 29Z" fill="#000000" opacity="1" data-original="#000000"></path><path d="M24 37v4h-1a1 1 0 0 0-1 1v12a1 1 0 0 0 1 1h18a1 1 0 0 0 1-1V42a1 1 0 0 0-1-1h-1v-4a8 8 0 0 0-16 0Zm16 16H24V43h16Zm-6-12h-4v-4a2 2 0 0 1 4 0Zm4-4v4h-2v-4a4 4 0 0 0-8 0v4h-2v-4a6 6 0 0 1 12 0Z" fill="#000000" opacity="1" data-original="#000000"></path><path d="M31 49.816V52h2v-2.184a3 3 0 1 0-2 0ZM32 46a1 1 0 1 1-1 1 1 1 0 0 1 1-1ZM53 46h2v2h-2zM55 54v-4h-2v3h-3v2h4a1 1 0 0 0 1-1ZM11 50H9v4a1 1 0 0 0 1 1h4v-2h-3Z" fill="#000000" opacity="1" data-original="#000000"></path></g></svg>