<svg xmlns="http://www.w3.org/2000/svg" version="1.1" xmlns:xlink="http://www.w3.org/1999/xlink" width="512" height="512" x="0" y="0" viewBox="0 0 60 60" style="enable-background:new 0 0 512 512" xml:space="preserve" class=""><g><path d="m29 14.261-11.957 6.7A2.032 2.032 0 0 0 16 22.735v14.53a2.034 2.034 0 0 0 1.042 1.777L29 45.741a2.035 2.035 0 0 0 1.994 0l11.959-6.7A2.036 2.036 0 0 0 44 37.265v-14.53a2.03 2.03 0 0 0-1.042-1.777L31 14.259a2.037 2.037 0 0 0-2 .002Zm1.019 1.744 10.937 6.124L30 28.264 19.043 22.13Zm-12 7.842L29 30v13.445l-11-6.18ZM31 43.425V30l11-6.158-.019 13.458Z" fill="#000000" opacity="1" data-original="#000000" class=""></path><path d="M38.1 4.323 32.305.374A2.131 2.131 0 0 0 30.1.248 2.042 2.042 0 0 0 29 2.017a28 28 0 0 0-17.275 49.2 3.994 3.994 0 0 0 2.606.966 4.2 4.2 0 0 0 .547-.037 4 4 0 0 0 2.1-6.968A20 20 0 0 1 29 10.023a2.042 2.042 0 0 0 1.1 1.728 2.128 2.128 0 0 0 2.2-.125l5.8-3.952a2.018 2.018 0 0 0 0-3.351Zm-6.924 5.652c-.014.009-.051.035-.176-.026V9a1 1 0 0 0-1-1 22 22 0 0 0-14.329 38.7 1.975 1.975 0 0 1 .334 2.591 2.012 2.012 0 0 1-1.4.878 1.986 1.986 0 0 1-1.575-.463A26 26 0 0 1 30 4a1 1 0 0 0 1-1l.067-.994A.114.114 0 0 1 31.1 2a.144.144 0 0 1 .076.025l5.8 4ZM48.314 8.817a4.008 4.008 0 0 0-5.923.771 3.971 3.971 0 0 0 .665 5.26A20 20 0 0 1 31 49.977a2.042 2.042 0 0 0-1.1-1.728 2.128 2.128 0 0 0-2.2.125l-5.8 3.952a2.018 2.018 0 0 0 0 3.351l5.8 3.949a2.134 2.134 0 0 0 2.2.126 2.042 2.042 0 0 0 1.1-1.769A28 28 0 0 0 48.314 8.817ZM30 56a1 1 0 0 0-1 1l-.067 1a.125.125 0 0 1-.111-.02l-5.8-4 5.8-3.952a.08.08 0 0 1 .046-.013.323.323 0 0 1 .13.039V51a1 1 0 0 0 1 1 22 22 0 0 0 14.363-38.667 2 2 0 0 1 2.645-3A26 26 0 0 1 30 56Z" fill="#000000" opacity="1" data-original="#000000" class=""></path><path d="M24.128 22.72a1 1 0 0 0 1.36.384l5-2.8a1 1 0 1 0-.976-1.744l-5 2.8a1 1 0 0 0-.384 1.36ZM21 28a1 1 0 0 0-1 1v6.528a1 1 0 0 0 2 0V29a1 1 0 0 0-1-1Z" fill="#000000" opacity="1" data-original="#000000" class=""></path></g></svg>