<svg xmlns="http://www.w3.org/2000/svg" version="1.1" xmlns:xlink="http://www.w3.org/1999/xlink" width="512" height="512" x="0" y="0" viewBox="0 0 512 512" style="enable-background:new 0 0 512 512" xml:space="preserve" class=""><g><path d="M365.148 391.74a7.5 7.5 0 0 0-5.033 9.336 280.096 280.096 0 0 1 11.805 80.415v.294c0 8.39-6.825 15.215-15.215 15.215s-15.215-6.825-15.215-15.215v-.294a249.909 249.909 0 0 0-10.897-72.929c-15.852-51.967-48.37-98.209-93.405-130.612l-27.092-19.493c-30.408-21.879-55.792-49.248-75.444-81.346a7.5 7.5 0 0 0-12.793 7.833c20.7 33.809 47.44 62.639 79.476 85.689l7.008 5.043c-25.944 26.874-46.374 58.031-60.722 92.691-14.957 36.132-22.541 74.192-22.541 113.126v.294c0 16.661 13.554 30.215 30.215 30.215s30.215-13.554 30.215-30.215v-.294c0-2.728.066-5.451.163-8.172h140.661c.095 2.719.157 5.441.157 8.172v.294c0 16.661 13.554 30.215 30.215 30.215s30.215-13.554 30.215-30.215v-.294c0-28.666-4.184-57.169-12.435-84.718a7.502 7.502 0 0 0-9.338-5.035zm-69.024 11.653c-3.386-14.057-16.059-24.535-31.14-24.535-15.123 0-27.824 10.538-31.167 24.653a7.487 7.487 0 0 0-1.288-.118H198.97a238.643 238.643 0 0 1 16.277-36.237h81.472c.033 0 .064-.004.096-.005a237.037 237.037 0 0 1 16.278 36.242zm-14.105 7.5c0 9.393-7.642 17.036-17.036 17.036-9.393 0-17.035-7.642-17.035-17.036 0-9.393 7.642-17.035 17.035-17.035 9.394 0 17.036 7.642 17.036 17.035zm5.726-58.737h-63.457a235.073 235.073 0 0 1 31.716-38.749 235.948 235.948 0 0 1 31.741 38.749zM170.51 481.785c0 8.39-6.825 15.215-15.215 15.215s-15.215-6.825-15.215-15.215v-.294c0-36.954 7.2-73.085 21.4-107.388 13.903-33.585 33.812-63.709 59.167-89.576l7.78 5.598a234.233 234.233 0 0 1 16.558 13.086c-47.359 46.919-74.475 111.703-74.475 178.28zm16.169-23.466a235.598 235.598 0 0 1 7.547-39.926h38.302c.44 0 .869-.046 1.288-.118 3.343 14.116 16.044 24.654 31.167 24.654 15.082 0 27.754-10.479 31.14-24.536h21.71c3.625 13 6.137 26.356 7.486 39.926z" fill="#000000" opacity="1" data-original="#000000" class=""></path><path d="M120.556 151.129c-17.938-37.628-27.419-79.44-27.419-120.914 0-8.39 6.825-15.215 15.215-15.215s15.215 6.825 15.215 15.215c0 80.459 38.992 156.55 104.302 203.541l27.092 19.493c41.906 30.152 74.71 71.368 94.866 119.192a7.5 7.5 0 0 0 6.914 4.589 7.5 7.5 0 0 0 6.908-10.415c-14.313-33.961-34.692-64.753-59.978-90.952l6.994-5.033c77.143-55.505 123.199-145.381 123.199-240.417C433.863 13.554 420.309 0 403.648 0s-30.215 13.554-30.215 30.215c0 2.267-.037 4.53-.103 6.789H221.338c-3.386-14.057-16.059-24.535-31.14-24.535s-27.754 10.479-31.14 24.535h-20.389a232.446 232.446 0 0 1-.103-6.789C138.566 13.554 125.012 0 108.352 0 91.691 0 78.137 13.554 78.137 30.215c0 43.693 9.986 87.737 28.879 127.369a7.5 7.5 0 0 0 13.54-6.455zm221.893-4.272h-30.783c-.353 0-.697.033-1.036.08-3.357-14.097-16.049-24.615-31.158-24.615-15.081 0-27.754 10.479-31.14 24.536h-78.619c-.053 0-.105.007-.158.008a237.055 237.055 0 0 1-18.084-39.934h209.057a237.016 237.016 0 0 1-18.079 39.925zm-45.942 7.5c0 9.393-7.642 17.035-17.035 17.035s-17.035-7.642-17.035-17.035c0-9.394 7.642-17.036 17.035-17.036s17.035 7.642 17.035 17.036zm-117.686 7.5h69.511c3.386 14.057 16.059 24.535 31.14 24.535 15.109 0 27.801-10.518 31.158-24.615.34.047.684.08 1.036.08h21.513a236.087 236.087 0 0 1-26.906 33.096h-99.194c-.424 0-.837.044-1.242.111a236.185 236.185 0 0 1-27.016-33.207zm42.984 48.095h68.389a233.845 233.845 0 0 1-14.824 11.628l-18.417 13.252c-.316.228-.601.48-.871.745l-19.453-13.997a234.13 234.13 0 0 1-14.824-11.628zM403.648 15c8.39 0 15.215 6.825 15.215 15.215 0 90.224-43.723 175.548-116.959 228.242l-9.081 6.534a294.677 294.677 0 0 0-24.045-20.187l15.354-11.048a249.383 249.383 0 0 0 30.575-25.985l.031-.031c29.628-29.601 51.324-66.156 63.227-106.026l.042-.141a249.9 249.9 0 0 0 10.427-71.359c0-8.389 6.825-15.214 15.214-15.214zm-213.45 12.469c9.393 0 17.035 7.642 17.035 17.035 0 9.394-7.642 17.036-17.035 17.036s-17.036-7.642-17.036-17.036c.001-9.393 7.643-17.035 17.036-17.035zm-31.14 24.535c3.386 14.057 16.059 24.536 31.14 24.536s27.754-10.479 31.14-24.536h151.071a235.174 235.174 0 0 1-7.249 39.926H146.84a235.174 235.174 0 0 1-7.249-39.926z" fill="#000000" opacity="1" data-original="#000000" class=""></path></g></svg>