<svg xmlns="http://www.w3.org/2000/svg" version="1.1" xmlns:xlink="http://www.w3.org/1999/xlink" width="512" height="512" x="0" y="0" viewBox="0 0 511 512" style="enable-background:new 0 0 512 512" xml:space="preserve" class=""><g><path fill="#4a555f" d="M437 65.98H35.945C16.402 65.98.5 81.883.5 101.426v319.012c0 19.558 15.902 35.468 35.445 35.468h299.196v-14.648h17.187l3.43-.024v-6.855h-3.688l-10.543-13.344-15.586-19.148-.25-.278a24.393 24.393 0 0 1-5.312-15.156l-.024-33.918v.004l-.02-71.25c5.435 1.547 14.747 5.867 15.013 17.332v8.629l6.879-7.254-.024-18.004c0-.12-.004-.238.008-.355l.016-.164-.02-74.899a16.808 16.808 0 0 1 4.957-11.973 17.19 17.19 0 0 1 4.555-3.257c3.676-1.809 7.965-2.215 12.035-1.055 3.836 1.07 7.195 3.5 9.453 6.844a16.824 16.824 0 0 1 2.867 9.441l.024 78.113.054 20.547 6.668-19.601c.032-.094.075-.184.114-.278.078-.18.156-.367.226-.55l.133-.313c1.645-4.492 4.582-7.074 9.027-8.078.168-.027.336-.066.563-.117.32-.067.656-.117.996-.152l.41-.051c.36-.035.719-.047 1.074-.047h8.684c2.492.015 4.918.777 7.02 2.203a12.863 12.863 0 0 1 5.687 10.684l.047 7.933h6.683l.164-3.254a12.831 12.831 0 0 1 5.817-10.066c2.05-1.395 4.48-2.129 7.031-2.129h8.48c3.887 0 7.528 1.73 9.981 4.746a12.928 12.928 0 0 1 2.93 8.164v5.645h6.855c0-3.489 2.192-6.618 5.457-7.79l2.27-.812V101.426c0-19.543-15.91-35.446-35.469-35.446zm28.613 220.79c-.668.375-1.308.8-1.906 1.27a19.766 19.766 0 0 0-3.434-6.2 19.643 19.643 0 0 0-15.296-7.277h-8.48c-3.927 0-7.692 1.148-10.833 3.277a19.422 19.422 0 0 0-3.723 3.16 19.676 19.676 0 0 0-7.039-8.43 19.467 19.467 0 0 0-10.836-3.379h-8.707c-.64 0-1.28.028-1.921.102l-.461.016-.188.058c-.437.055-.855.125-1.191.196-.149.027-.297.058-.578.125-3.141.703-5.836 1.949-8.075 3.714l-.02-66.828c0-4.765-1.394-9.355-4.038-13.277-3.172-4.695-7.895-8.106-13.278-9.606-5.644-1.605-11.722-1.054-16.925 1.504a24.06 24.06 0 0 0-6.36 4.547 23.612 23.612 0 0 0-6.172 10.68 23.503 23.503 0 0 0-.804 6.152l.023 74.594c-.02.273-.023.547-.023.824v.14c-5.5-5.456-13.094-7.902-18.059-8.46l-3.816-.434.023 79.301h3.426-3.426l.024 33.914a31.277 31.277 0 0 0 6.957 19.617l15.703 19.254 7.168 9.074h-15.063v14.653H35.945c-15.761 0-28.59-12.836-28.59-28.617V101.426c0-15.766 12.829-28.59 28.59-28.59H437c15.781 0 28.613 12.824 28.613 28.59zm0 0" opacity="1" data-original="#4a555f" class=""></path><path fill="#f58e6f" d="M437 80.836H35.945c-11.355 0-20.59 9.234-20.59 20.59v319.012c0 11.359 9.235 20.613 20.59 20.613h295.77v-3.223h20.613v-.023h-1.918l-11.543-14.602-11.496-14.125H52.078V112.785H404.07v159.836a16.01 16.01 0 0 1 8.91 2.79c4.344 2.925 7.2 7.882 7.2 13.527v4.503h.047a16.184 16.184 0 0 1 7.312-12.73 5.697 5.697 0 0 1-.066-.89v-37.755c0-4.043 3.265-7.312 7.289-7.312h.504a7.304 7.304 0 0 1 7.312 7.312v35.926h2.399a16.23 16.23 0 0 1 12.636 6.012V101.426c0-11.356-9.254-20.59-20.613-20.59zm0 0" opacity="1" data-original="#f58e6f" class=""></path><path fill="#4a555f" d="M48.652 109.355v303.153h285.93l-8.64-10.617-.25-.278a24.396 24.396 0 0 1-5.313-15.16l-.024-33.914-.02-71.25c5.442 1.55 14.767 5.875 15.017 17.367l6.855-.07v-16.594c0-.117-.008-.234.008-.351l.015-.168-.023-74.895c0-1.508.191-2.973.57-4.375a16.779 16.779 0 0 1 4.387-7.601 17.24 17.24 0 0 1 4.555-3.254 16.825 16.825 0 0 1 12.035-1.055c3.836 1.066 7.195 3.496 9.457 6.84 1.875 2.781 2.863 6.047 2.863 9.445l.024 78.113.058 20.551 6.664-19.61c.032-.089.075-.179.118-.273.078-.18.156-.367.222-.55l.133-.313c1.648-4.492 4.582-7.074 9.031-8.078.164-.027.332-.066.559-.117.32-.07.656-.117.996-.153l.41-.046c.36-.04.719-.051 1.074-.051h12.133V109.355zm351.989 159.836h-5.278c-.64 0-1.281.028-1.922.102l-.464.016-.188.058c-.437.055-.852.125-1.187.196-.153.027-.301.058-.579.125-3.14.703-5.836 1.949-8.074 3.714l-.02-66.828c0-4.765-1.394-9.355-4.038-13.277-3.176-4.695-7.899-8.106-13.282-9.606-5.644-1.605-11.718-1.054-16.921 1.504a23.997 23.997 0 0 0-6.36 4.547 23.62 23.62 0 0 0-6.176 10.68 23.667 23.667 0 0 0-.8 6.152l.02 74.594c-.017.273-.02.547-.02.824v.14c-5.504-5.456-13.098-7.902-18.063-8.46l-3.812-.434.023 79.301h3.426-3.426l.023 33.914a31.26 31.26 0 0 0 6.622 19.195H55.508V116.215H400.64zM435.266 231.324h-.504c-5.91 0-10.719 4.82-10.719 10.742v37.754c0 .477.035.95.113 1.426l.84 5.336 4.473-3.035c2.05-1.39 4.48-2.125 7.031-2.125h9.508v-39.356c0-5.921-4.82-10.742-10.742-10.742zm3.882 43.238H436.5a19.74 19.74 0 0 0-5.602.81v-33.306c0-2.144 1.735-3.886 3.864-3.886h.504a3.891 3.891 0 0 1 3.882 3.886zM490.125 434.324l-161.852.067.036 77.609 161.851-.07zM335.16 505.141l-.023-63.895 148.136-.062.028 63.894zm0 0" opacity="1" data-original="#4a555f" class=""></path><path fill="#ffd452" d="M343.148 449.21H475.29v47.9H343.15zm0 0" opacity="1" data-original="#ffd452" class=""></path><path fill="#4a555f" d="M362.363 456.781c-9.043.004-16.394 7.364-16.39 16.406.004 9.04 7.359 16.391 16.394 16.391h.012c4.379 0 8.492-1.707 11.594-4.808a16.279 16.279 0 0 0 4.793-11.594c0-9.04-7.36-16.395-16.403-16.395zm6.754 23.145a9.463 9.463 0 0 1-6.746 2.797l-.004 3.43v-3.43c-5.258 0-9.539-4.278-9.539-9.535-.004-5.262 4.277-9.547 9.543-9.547 5.258 0 9.54 4.277 9.54 9.539a9.456 9.456 0 0 1-2.794 6.746zM494.266 299.969c0-8.352-6.801-15.145-15.157-15.145l-6.082.004a15.033 15.033 0 0 0-9.32 3.207c-2.637-7.82-10.039-13.465-18.742-13.465h-8.469a19.682 19.682 0 0 0-14.555 6.43 19.78 19.78 0 0 0-7.05-8.441 19.645 19.645 0 0 0-11.047-3.375l-8.489.003c-.664 0-1.324.04-2.19.137a19.69 19.69 0 0 0-1.657.25l-.473.11c-3.148.707-5.847 1.953-8.086 3.714l-.027-66.836c-.004-13.109-10.676-23.777-23.8-23.777-6.352 0-12.325 2.48-16.817 6.973-4.492 4.496-6.965 10.472-6.961 16.824l.031 75.574c-5.492-5.465-13.078-7.918-18.082-8.484l-3.816-.434.046 113.211c.004 7.14 2.48 14.11 7.09 19.774l15.559 19.105 12.59 15.918 123.89-.055 21.657-41.437zm-25.77 134.37-116.418.048-10.558-13.348-15.711-19.297c-3.496-4.297-5.422-9.726-5.43-15.297l-.04-105.156c5.516 1.574 15.036 6.016 15.044 17.898l6.855-.003-.039-92.606c0-4.52 1.758-8.773 4.957-11.973a16.811 16.811 0 0 1 11.977-4.964c9.332 0 16.93 7.593 16.933 16.925l.032 77.985c-.008.219-.008.445.004.71l5.062-.113 1.664.47c.031-.095.074-.188.117-.282.106-.242.207-.484.336-.836 1.656-4.5 4.594-7.082 9.239-8.125l.316-.074c.355-.07.715-.125 1.234-.188.426-.043.856-.07 1.293-.07l8.489-.004a12.8 12.8 0 0 1 7.203 2.203 12.893 12.893 0 0 1 5.691 10.695l.059 7.215 6.629 1.586.218-4.11c.364-6.839 6.008-12.194 12.848-12.198l8.473-.004c7.113 0 12.902 5.789 12.906 12.898l.004 5.66h6.855a8.25 8.25 0 0 1 2.426-5.867 8.244 8.244 0 0 1 5.867-2.433l6.082-.004c4.574 0 8.293 3.722 8.297 8.293l.04 98.101zm0 0" opacity="1" data-original="#4a555f" class=""></path><path fill="#dfdfdf" d="M479.414 306.309a6.64 6.64 0 0 0-6.379-6.63.297.297 0 0 0-.297.298l-22.851.011-.004-5.66a4.854 4.854 0 0 0-1.574-3.598 4.816 4.816 0 0 0-3.336-1.308l-8.47.004a4.873 4.873 0 0 0-4.862 4.613c-.38 7.145-7.153 12.191-14.106 10.512l-.02-.004a11.453 11.453 0 0 1-8.761-11.067v-.042l-.004-4.5a4.863 4.863 0 0 0-1.57-3.59 5.035 5.035 0 0 0-.602-.477 4.777 4.777 0 0 0-2.73-.832l-8.48.004c-.11 0-.22.008-.333.016 0 0-.43.05-.535.07l-.285.066c-.485.106-.957.407-1.402.801-2.348 2.09-5.278 3.395-8.418 3.332-.54-.012-1.098-.02-1.672-.031-8.04-.14-14.48-6.695-14.5-14.735l-.157-66.777c0-1.605-.34-3.226-1.148-4.617-1.676-2.883-4.629-4.531-7.79-4.527-2.386 0-4.628.93-6.315 2.617s-2.618 3.933-2.614 6.32l.035 81.656c.004 6.047-4.898 10.95-10.945 10.954-6.043.003-10.941 4.906-10.941 10.953l.03 76.304a16.305 16.305 0 0 0 3.634 10.25l15.71 19.293 8.227 10.403 107.7-.047 15.8-30.235zm0 0" opacity="1" data-original="#dfdfdf" class=""></path><path fill="#4a555f" d="M335.39 294.945h6.856v52.188h-6.855zM362.348 456.773c-9.028.032-16.371 7.391-16.371 16.41 0 9.036 7.34 16.383 16.367 16.383h.043c9.031 0 16.383-7.347 16.383-16.382 0-9.047-7.364-16.41-16.422-16.41zm.027 25.938-.031 3.43v-3.43c-5.246 0-9.512-4.274-9.512-9.527s4.281-9.54 9.527-9.555c5.274 0 9.555 4.285 9.555 9.555 0 5.253-4.273 9.527-9.539 9.527zm0 0" opacity="1" data-original="#4a555f" class=""></path><path fill="#ffd452" d="M362.36 460.203c-7.153.024-12.958 5.828-12.958 12.98 0 7.176 5.805 12.981 12.98 12.958 7.153 0 12.962-5.805 12.962-12.957 0-7.176-5.809-12.98-12.985-12.98zm0 0" opacity="1" data-original="#ffd452" class=""></path><path fill="#4a555f" d="M362.348 456.773c-9.028.032-16.371 7.391-16.371 16.41 0 9.036 7.34 16.383 16.367 16.383h.043c9.031 0 16.383-7.347 16.383-16.382 0-9.047-7.364-16.41-16.422-16.41zm.027 25.938-.031 3.43v-3.43c-5.246 0-9.512-4.274-9.512-9.527s4.281-9.54 9.527-9.555c5.274 0 9.555 4.285 9.555 9.555 0 5.253-4.273 9.527-9.539 9.527zM342.207 297.21l-6.855-7.198v17.234l6.875-7.246zm0 0" opacity="1" data-original="#4a555f" class=""></path><path fill="#4a555f" d="m342.16 298.234-3.363.274-.02-2.735v2.739l-3.425.277v3.84h3.449l3.426-.024v-3.425a5.47 5.47 0 0 0-.067-.946zm0 0" opacity="1" data-original="#4a555f" class=""></path><path fill="#4a555f" d="M335.371 294.95v4.25l6.856-.024v-4.227zM97.863 311.395v62.378h92.547v-62.378zm85.692 55.523h-78.836V318.25h78.836zm0 0" opacity="1" data-original="#4a555f" class=""></path><path fill="#4a555f" d="M97.863 311.395v62.378H279.22v-62.378zm174.5 55.523H104.72V318.25h167.644zm0 0" opacity="1" data-original="#4a555f" class=""></path><path fill="#dfdfdf" d="M112.719 326.25h151.644v32.672H112.72zm0 0" opacity="1" data-original="#dfdfdf" class=""></path><path fill="#4a555f" d="M83.008 297.84v20.41H294.27v-20.41zm204.406 13.555H89.864v-6.7h197.55zM83.008 227.691v20.41H294.27v-20.41zm204.406 13.551H89.864v-6.695h197.55zm0 0" opacity="1" data-original="#4a555f" class=""></path><path fill="#f58e6f" d="M133.309 339.836h21.312v30.512H133.31zm0 0" opacity="1" data-original="#f58e6f" class=""></path><path fill="#4a555f" d="M97.863 241.242v63.453H279.22v-63.453zm174.5 56.598H104.72v-49.738h167.644zm0 0" opacity="1" data-original="#4a555f" class=""></path><path fill="#dfdfdf" d="M112.719 256.098h151.644v33.746H112.72zm0 0" opacity="1" data-original="#dfdfdf" class=""></path><path fill="#4a555f" d="m161.664 135.914-74.89 58.59h29.812l45.078-35.066 45.082 35.066h29.813zm0 14.836-47.43 36.898h-7.574l55.004-43.027 55.008 43.027h-7.574zm0 0" opacity="1" data-original="#4a555f" class=""></path><path fill="#4a555f" d="m161.664 150.75-49.684 38.648v45.149h99.356v-45.149zm42.816 76.941h-85.64V192.75l42.824-33.313 42.816 33.313zm0 0" opacity="1" data-original="#4a555f" class=""></path><path fill="#dfdfdf" d="m161.664 169.57-34.828 27.094v23.027h69.644v-23.03zm0 0" opacity="1" data-original="#dfdfdf" class=""></path><path fill="#4a555f" d="m170.676 151.664 45.996 35.984H204.48v46.899h70.165v-82.883zm97.11 76.027h-56.45v-33.187h25.223l-45.993-35.98h77.22zm0 0" opacity="1" data-original="#4a555f" class=""></path><path fill="#dfdfdf" d="m213.773 166.52 45.997 35.98h-40.434v17.191h40.453V166.52zm0 0" opacity="1" data-original="#dfdfdf" class=""></path><path fill="#4a555f" d="M117.05 257.512v25.968h61.626v-25.968zm54.77 19.113h-47.914v-12.258h47.914zm0 0" opacity="1" data-original="#4a555f" class=""></path><path fill="#4a555f" d="M135.254 260.941h6.855v19.11h-6.855zM153.73 260.941h6.86v19.11h-6.86zM213.328 275.77v28.925h65.89V275.77zm59.035 22.07h-52.18v-15.215h52.18zm0 0" opacity="1" data-original="#4a555f" class=""></path><path fill="#f58e6f" d="M151.352 183.54h20.625v25.429h-20.625zm0 0" opacity="1" data-original="#f58e6f" class=""></path><g fill="#4a555f"><path d="M353.883 141.695c-18.399 0-33.367 14.977-33.367 33.387a33.323 33.323 0 0 0 17.3 29.242l3.832 2.102 1.125-4.227a16.773 16.773 0 0 1 4.391-7.597 17.216 17.216 0 0 1 4.555-3.258c3.676-1.805 7.965-2.211 12.031-1.055 3.836 1.07 7.195 3.5 9.46 6.848l2.442 3.61 2.934-3.224a33.272 33.272 0 0 0 8.664-22.441c0-18.41-14.969-33.387-33.367-33.387zm22.09 48.067a23.666 23.666 0 0 0-10.364-6.07c-5.644-1.606-11.718-1.055-16.921 1.503a23.997 23.997 0 0 0-6.36 4.547 23.384 23.384 0 0 0-4.57 6.387 26.488 26.488 0 0 1-10.387-21.047c0-14.629 11.895-26.531 26.512-26.531s26.512 11.902 26.512 26.531c0 5.273-1.551 10.363-4.422 14.68zm0 0" fill="#4a555f" opacity="1" data-original="#4a555f" class=""></path><path d="M340.742 168.754v22.941H351l.719-.351c3.676-1.809 8-2.203 12.011-1.059l4.368 1.246v-22.777zm20.5 14.125a23.598 23.598 0 0 0-11.805 1.96h-1.84v-9.23h13.645zm0 0" fill="#4a555f" opacity="1" data-original="#4a555f" class=""></path><path d="M354.414 156.29c-6.21 0-11.266 5.054-11.266 11.269v8.058h22.54v-8.058c0-6.215-5.055-11.27-11.274-11.27zm4.414 12.472h-8.824v-1.203a4.416 4.416 0 0 1 4.41-4.414 4.417 4.417 0 0 1 4.414 4.414zM327.57 147.496l-2.086-2.723-2.074-2.726c-.234.18-5.781 4.453-9.976 12.422-3.872 7.344-7.329 19.37-1.805 34.941l6.465-2.289c-8.895-25.078 8.722-39.043 9.476-39.625zM233.004 18.879c-12.89 0-25.61 3.937-36.781 11.387l3.804 5.703c10.043-6.696 21.446-10.235 32.977-10.235 11.562 0 22.976 3.54 33 10.23l3.809-5.698c-11.157-7.45-23.883-11.387-36.81-11.387zm0 0" fill="#4a555f" opacity="1" data-original="#4a555f" class=""></path><path d="M233.004 0c-15.926 0-31.543 5.027-45.156 14.535l3.93 5.621c12.452-8.703 26.71-13.3 41.226-13.3 14.52 0 28.777 4.597 41.23 13.3l3.926-5.62C264.55 5.026 248.934 0 233.004 0zM233.004 38.375c-9.774 0-19.477 2.824-28.055 8.176l3.625 5.816c7.598-4.734 15.82-7.137 24.43-7.137 8.617 0 16.836 2.403 24.43 7.137l3.628-5.816c-8.578-5.348-18.28-8.176-28.058-8.176zM82.992 366.918H290.84v6.855H82.992zm0 0" fill="#4a555f" opacity="1" data-original="#4a555f" class=""></path><path d="M183.555 311.395v62.378h95.664v-62.378zm88.808 55.523H190.41V318.25h81.953zm0 0" fill="#4a555f" opacity="1" data-original="#4a555f" class=""></path></g></g></svg>